if (_typeface_js && _typeface_js.loadFace) _typeface_js.loadFace({"glyphs":{"S":{"x_min":-20.828125,"x_max":644.5,"ha":776,"o":"m 644 600 l 484 554 q 463 596 469 586 q 443 625 458 607 q 406 657 427 643 l 225 657 l 223 657 q 201 639 213 651 q 180 618 188 627 q 172 608 172 609 l 172 541 l 176 531 l 526 437 q 610 377 580 422 q 640 279 640 331 l 640 200 q 616 115 640 151 q 569 61 602 95 q 513 15 536 27 q 425 -11 466 -11 l 212 -11 q 31 105 120 -11 q -20 206 18 123 l 136 259 q 145 240 138 254 q 154 221 151 226 q 162 206 156 216 q 172 190 168 195 q 183 177 176 184 q 197 163 190 169 q 215 151 205 156 l 419 151 l 420 151 q 443 168 430 156 q 463 189 455 180 q 472 200 472 198 l 472 275 l 468 284 l 119 377 q 35 438 65 393 q 5 536 5 483 l 5 608 q 27 693 5 658 q 75 746 41 712 q 130 793 108 780 q 219 819 177 819 l 411 819 q 591 702 502 819 q 644 600 604 687 "},"¦":{"x_min":0,"x_max":0,"ha":663},"/":{"x_min":-38.890625,"x_max":597.265625,"ha":610,"o":"m 597 825 l 147 -4 l -38 -4 l 412 825 l 597 825 "},"y":{"x_min":-83.34375,"x_max":620.890625,"ha":697,"o":"m 620 819 l 350 365 l 350 -4 l 184 -4 l 184 365 l -83 819 l 102 819 l 268 537 l 434 819 l 620 819 "},"≈":{"x_min":0,"x_max":0,"ha":635},"Ž":{"x_min":0,"x_max":0,"ha":710},"Á":{"x_min":-69.453125,"x_max":686.171875,"ha":811,"o":"m 686 -4 l 508 -4 l 454 154 l 163 154 l 106 -4 l -69 -4 l 216 823 l 400 823 l 686 -4 m 402 315 l 308 584 l 213 315 l 402 315 m 575 1112 l 313 872 l 140 920 l 348 1112 l 575 1112 "},"g":{"x_min":11.109375,"x_max":650.046875,"ha":790,"o":"m 650 -1 l 486 -1 l 480 33 q 459 19 473 29 q 431 2 444 9 q 408 -4 419 -4 l 225 -4 q 136 22 180 -4 q 80 67 113 36 q 34 119 47 98 q 11 204 11 155 l 11 618 q 34 702 11 668 q 125 794 80 768 q 225 827 169 827 l 418 827 q 598 712 511 827 q 632 652 601 709 l 470 609 q 450 640 462 627 q 434 654 438 652 q 416 663 429 657 l 415 663 q 412 665 413 665 l 229 665 q 177 615 197 645 l 177 613 l 177 205 q 229 158 177 188 l 231 158 l 402 158 q 456 205 456 190 l 456 322 l 344 322 l 344 484 l 622 484 l 622 173 q 625 143 622 161 q 635 84 627 126 q 650 -1 643 43 "},"²":{"x_min":0,"x_max":0,"ha":447},"–":{"x_min":-2.78125,"x_max":323.640625,"ha":456,"o":"m 323 263 l -2 263 l -2 416 l 323 416 l 323 263 "},"ë":{"x_min":9.71875,"x_max":537.546875,"ha":693,"o":"m 537 -4 l 9 -4 l 9 819 l 537 819 l 537 657 l 175 657 l 175 487 l 525 488 l 525 327 l 175 326 l 175 156 l 537 156 l 537 -4 m 484 947 l 326 947 l 326 1112 l 484 1112 l 484 947 m 218 947 l 62 947 l 62 1112 l 218 1112 l 218 947 "},"ƒ":{"x_min":0,"x_max":0,"ha":704},"Î":{"x_min":-147.234375,"x_max":398.640625,"ha":361,"o":"m 398 930 l 322 898 l 205 898 l 126 968 l 123 968 l 47 898 l -70 898 l -147 930 l 62 1112 l 187 1112 l 398 930 m 227 -4 l 61 -4 l 61 819 l 227 819 l 227 -4 "},"e":{"x_min":9.71875,"x_max":537.546875,"ha":693,"o":"m 537 -4 l 9 -4 l 9 819 l 537 819 l 537 657 l 175 657 l 175 487 l 525 488 l 525 327 l 175 326 l 175 156 l 537 156 l 537 -4 "},"Ã":{"x_min":-69.453125,"x_max":686.171875,"ha":832,"o":"m 686 -4 l 508 -4 l 454 154 l 163 154 l 106 -4 l -69 -4 l 216 823 l 400 823 l 686 -4 m 402 315 l 308 584 l 213 315 l 402 315 m 569 958 l 413 929 q 401 957 405 951 q 390 961 397 963 l 300 944 q 179 964 236 933 q 90 1077 123 995 l 244 1107 q 258 1079 254 1086 q 268 1075 262 1073 l 359 1093 q 480 1074 423 1107 q 569 958 537 1041 "},"J":{"x_min":-62.5,"x_max":486.15625,"ha":639,"o":"m 486 200 q 461 115 486 151 q 414 61 447 94 q 361 16 381 29 q 272 -9 316 -9 l 173 -9 q -8 106 80 -9 q -62 211 -25 129 l 98 254 l 122 209 q 170 152 144 169 l 176 152 l 266 152 q 293 176 268 152 q 318 201 318 200 l 318 825 l 486 825 l 486 200 "},"»":{"x_min":-6.9375,"x_max":734.78125,"ha":907,"o":"m 734 322 l 531 120 l 352 168 l 544 354 l 355 536 l 531 587 l 734 384 l 734 322 m 376 322 l 173 120 l -6 168 l 184 354 l -2 536 l 173 587 l 376 384 l 376 322 "},"©":{"x_min":11.109375,"x_max":1159.8125,"ha":1313,"o":"m 356 37 l 234 -80 q 186 -34 220 -66 q 134 13 151 -2 q 36 119 55 90 q 11 204 11 155 l 11 616 q 36 701 11 665 q 127 800 58 733 q 234 904 194 863 l 355 788 q 304 741 352 786 q 217 658 255 695 q 179 613 179 620 l 179 206 q 243 136 179 194 q 356 37 306 77 m 1159 204 q 1136 119 1159 155 q 1037 13 1113 84 q 934 -81 944 -73 l 815 37 q 929 136 865 77 q 993 206 993 194 l 993 613 q 955 658 993 620 q 869 741 918 695 q 818 788 820 786 l 934 902 q 984 859 943 895 q 1043 804 1025 822 q 1091 756 1062 786 q 1136 701 1119 726 q 1159 616 1159 666 l 1159 204 m 770 295 q 618 161 705 161 l 554 161 q 459 190 500 161 q 424 220 444 200 q 397 252 404 240 q 373 333 373 286 l 373 347 l 373 350 l 373 472 q 397 554 373 520 q 424 586 404 566 q 459 616 444 607 q 554 645 500 645 l 618 645 q 653 638 636 645 q 682 623 670 632 q 708 597 694 615 q 728 570 722 580 q 747 539 734 561 q 765 511 761 518 l 644 477 l 636 487 q 619 501 630 493 l 618 502 l 616 502 l 554 502 q 550 502 552 502 l 547 501 q 522 473 527 483 l 522 470 l 522 454 l 522 336 l 522 333 q 547 305 537 306 l 550 305 q 555 304 554 304 l 616 304 q 618 305 616 305 l 619 305 q 636 319 630 313 l 644 329 q 677 322 645 330 q 738 305 708 313 l 770 295 "},"˘":{"x_min":111.125,"x_max":498.65625,"ha":783,"o":"m 498 1125 q 491 1096 495 1115 q 482 1063 487 1077 q 469 1040 477 1050 q 404 984 448 1012 q 323 962 369 962 l 287 962 q 208 984 245 962 q 140 1041 170 1008 q 127 1066 131 1052 q 118 1097 122 1079 q 111 1125 113 1115 l 227 1125 q 239 1110 229 1123 q 260 1086 250 1097 q 280 1072 270 1076 q 283 1072 281 1069 l 284 1073 l 326 1073 l 333 1073 q 380 1119 362 1090 l 380 1122 l 380 1123 l 381 1125 l 498 1125 "},"≥":{"x_min":-9.71875,"x_max":519.484375,"ha":640,"o":"m 519 325 l -8 38 l -8 219 l 287 379 l -9 537 l -9 716 l 519 431 l 519 325 "},"ò":{"x_min":11.109375,"x_max":641.71875,"ha":783,"o":"m 641 200 q 618 115 641 150 q 570 61 604 94 q 516 15 537 27 q 427 -11 472 -11 l 248 -11 l 225 -11 q 136 15 180 -11 q 81 61 115 27 q 34 115 48 94 q 11 200 11 150 l 11 443 l 11 611 q 34 695 11 661 q 81 750 48 716 q 136 795 115 783 q 225 822 180 822 l 404 822 l 427 822 q 516 795 472 822 q 570 750 537 783 q 618 695 604 716 q 641 611 641 661 l 641 368 l 641 200 m 475 202 l 475 204 l 475 441 l 475 607 l 475 608 q 425 659 445 648 l 420 659 l 230 659 l 229 659 q 177 608 202 645 l 177 607 l 177 369 l 177 204 l 177 202 q 227 151 206 162 l 231 151 l 422 151 l 423 151 q 475 202 450 165 m 463 920 l 291 872 l 29 1112 l 256 1112 l 463 920 "},"^":{"x_min":22.21875,"x_max":568.09375,"ha":621,"o":"m 568 927 l 491 895 l 375 895 l 297 965 l 294 965 l 216 895 l 98 895 l 22 927 l 231 1109 l 358 1109 l 568 927 "},"«":{"x_min":23.609375,"x_max":754.234375,"ha":907,"o":"m 754 168 l 573 120 l 372 322 l 372 384 l 573 587 l 752 536 l 562 354 l 754 168 m 406 168 l 226 120 l 23 322 l 23 384 l 226 587 l 402 536 l 215 354 l 406 168 "},"D":{"x_min":9.71875,"x_max":615.328125,"ha":768,"o":"m 615 202 q 593 119 615 154 q 546 66 580 98 q 490 22 512 34 q 402 -4 443 -4 l 9 -4 l 9 822 l 402 822 q 491 797 454 822 q 544 750 512 783 q 591 695 576 716 q 615 612 615 662 l 615 202 m 450 205 l 450 608 l 450 609 q 397 661 423 647 l 394 661 l 173 661 l 173 156 l 395 156 l 397 156 q 450 205 450 188 "},"ł":{"x_min":0,"x_max":0,"ha":710},"ÿ":{"x_min":0,"x_max":0,"ha":531},"Ł":{"x_min":0,"x_max":0,"ha":710},"í":{"x_min":-45.84375,"x_max":393.09375,"ha":374,"o":"m 393 1109 l 131 869 l -45 916 l 165 1109 l 393 1109 m 240 -4 l 72 -4 l 72 819 l 240 819 l 240 -4 "},"ˆ":{"x_min":-31.953125,"x_max":513.9375,"ha":538,"o":"m 513 929 l 437 897 l 320 897 l 243 966 l 240 966 l 162 897 l 44 897 l -31 929 l 177 1111 l 302 1111 l 513 929 "},"w":{"x_min":-9.71875,"x_max":968.140625,"ha":1057,"o":"m 968 820 l 776 -4 l 595 -4 l 477 484 l 359 -4 l 179 -4 l -9 820 l 161 820 l 270 308 l 391 820 l 562 820 l 683 308 l 791 820 l 968 820 "},"$":{"x_min":-12.5,"x_max":652.828125,"ha":807,"o":"m 652 600 l 493 554 q 472 596 477 586 q 451 625 466 607 q 415 657 436 643 l 233 657 l 231 657 q 209 639 222 651 q 188 618 197 627 q 180 608 180 609 l 180 541 l 184 531 l 534 437 q 618 377 588 422 q 648 279 648 331 l 648 200 q 625 115 648 151 q 577 61 611 95 q 522 15 544 27 q 433 -11 475 -11 l 405 -11 l 405 -166 l 247 -166 l 247 -11 l 220 -11 q 40 105 129 -11 q -12 206 26 123 l 144 259 q 153 240 147 254 q 162 221 159 226 q 170 206 165 216 q 180 190 176 195 q 191 177 184 184 q 206 163 198 169 q 223 151 213 156 l 427 151 l 429 151 q 451 168 438 156 q 472 189 463 180 q 480 200 480 198 l 480 275 l 476 284 l 127 377 q 43 438 73 393 q 13 536 13 483 l 13 608 q 36 693 13 658 q 83 746 50 712 q 138 793 116 780 q 227 819 186 819 l 247 819 l 247 969 l 405 969 l 405 819 l 419 819 q 600 702 511 819 q 652 600 612 687 "},"∫":{"x_min":0,"x_max":0,"ha":635},"\\":{"x_min":-47.21875,"x_max":590.328125,"ha":618,"o":"m 590 -4 l 402 -4 l -47 825 l 138 825 l 590 -4 "},"Ì":{"x_min":-104.171875,"x_max":334.75,"ha":338,"o":"m 334 912 l 158 865 l -104 1105 l 123 1105 l 334 912 m 204 -4 l 37 -4 l 37 819 l 204 819 l 204 -4 "},"Ç":{"x_min":9.71875,"x_max":637.546875,"ha":763,"o":"m 637 208 q 584 104 609 133 q 404 -12 495 -12 l 223 -12 q 134 13 179 -12 q 79 59 112 26 q 33 112 47 93 q 9 197 9 147 l 9 611 q 33 694 9 659 q 80 748 47 715 q 134 794 113 782 q 223 820 181 820 l 404 820 q 584 704 495 820 q 637 601 601 684 l 477 555 q 429 636 447 616 q 400 658 416 647 l 229 658 q 176 607 194 634 l 176 604 l 176 600 l 176 198 q 230 150 176 183 l 400 150 q 454 206 433 169 q 477 251 461 213 l 637 208 m 411 -97 l 308 -287 l 125 -287 l 254 -50 l 411 -97 "},"’":{"x_min":38.890625,"x_max":211.125,"ha":329,"o":"m 211 686 l 198 581 l 38 581 l 52 705 l 52 888 l 211 888 l 211 686 "},"-":{"x_min":-2.78125,"x_max":502.8125,"ha":645,"o":"m 502 263 l -2 263 l -2 418 l 502 418 l 502 263 "},"Q":{"x_min":9.71875,"x_max":654.21875,"ha":807,"o":"m 654 200 q 630 115 654 150 q 583 61 616 94 q 529 15 550 27 q 491 -1 501 1 l 545 -126 l 368 -126 l 319 -11 l 247 -11 l 223 -11 q 134 15 179 -11 q 80 61 113 27 q 33 115 47 94 q 9 200 9 150 l 9 443 l 9 611 q 33 695 9 661 q 80 750 47 716 q 134 795 113 783 q 223 822 179 822 l 416 822 l 440 822 q 529 795 484 822 q 583 750 550 783 q 630 695 616 716 q 654 611 654 661 l 654 368 l 654 200 m 487 202 l 487 204 l 487 441 l 487 607 l 487 608 q 437 659 458 648 l 433 659 l 229 659 l 227 659 q 176 608 201 645 l 176 607 l 176 369 l 176 204 l 176 202 q 227 151 204 163 l 230 151 l 252 151 l 248 162 l 401 213 l 427 151 l 434 151 l 436 151 q 487 202 462 165 "},"M":{"x_min":9.71875,"x_max":740.34375,"ha":903,"o":"m 740 -4 l 576 -4 l 576 497 l 427 193 l 320 193 l 173 494 l 173 -4 l 9 -4 l 9 819 l 191 819 l 376 444 l 559 819 l 740 819 l 740 -4 "},"C":{"x_min":9.71875,"x_max":637.546875,"ha":763,"o":"m 637 208 q 584 104 609 133 q 404 -12 495 -12 l 223 -12 q 134 13 179 -12 q 79 59 112 26 q 33 112 47 93 q 9 197 9 147 l 9 611 q 33 694 9 659 q 80 748 47 715 q 134 794 113 782 q 223 820 181 820 l 404 820 q 584 704 495 820 q 637 601 601 684 l 477 555 q 429 636 447 616 q 400 658 416 647 l 229 658 q 176 607 194 634 l 176 604 l 176 600 l 176 198 q 230 150 176 183 l 400 150 q 454 206 433 169 q 477 251 461 213 l 637 208 "},"œ":{"x_min":11.109375,"x_max":725.0625,"ha":875,"o":"m 725 -4 l 216 -4 q 136 22 140 19 q 79 68 113 36 q 33 119 45 100 q 11 204 11 154 l 11 616 q 33 693 11 661 q 80 746 47 712 q 136 793 113 780 q 216 819 140 795 l 725 819 l 725 657 l 488 657 l 488 487 l 725 487 l 725 326 l 488 326 l 488 156 l 725 156 l 725 -4 m 312 156 l 312 655 l 230 655 l 222 655 q 176 613 176 633 l 176 205 q 192 184 176 201 q 220 158 208 166 q 227 158 223 158 l 230 156 l 312 156 "},"!":{"x_min":65.28125,"x_max":234.734375,"ha":310,"o":"m 229 226 l 66 226 l 66 827 l 229 827 l 229 226 m 234 -4 l 65 -4 l 65 163 l 234 163 l 234 -4 "},"ç":{"x_min":9.71875,"x_max":605.609375,"ha":731,"o":"m 605 163 q 570 102 576 109 q 390 -12 483 -12 l 231 -12 q 134 13 169 -12 q 79 59 112 26 q 33 112 47 93 q 9 197 9 147 l 9 611 q 33 694 9 659 q 79 744 41 708 q 131 791 116 780 q 233 825 176 825 l 390 825 q 570 709 483 825 q 604 650 573 705 l 443 607 q 422 637 434 625 q 406 652 411 650 q 388 661 401 654 l 387 661 q 384 662 386 662 l 233 662 q 176 607 195 637 l 176 604 l 176 600 l 176 198 q 233 150 176 184 l 386 150 l 387 150 q 390 151 388 151 q 443 206 426 169 l 605 163 m 368 -90 l 265 -280 l 81 -280 l 211 -43 l 368 -90 "},"È":{"x_min":9.71875,"x_max":551.4375,"ha":707,"o":"m 551 -4 l 9 -4 l 9 819 l 551 819 l 551 657 l 175 657 l 175 487 l 538 488 l 538 327 l 175 326 l 175 156 l 551 156 l 551 -4 m 508 919 l 336 870 l 73 1111 l 301 1111 l 508 919 "},"ﬁ":{"x_min":0,"x_max":0,"ha":610},"{":{"x_min":-2.78125,"x_max":343.078125,"ha":465,"o":"m 343 37 l 220 -80 q 172 -34 206 -66 q 120 13 137 -2 q 22 119 41 90 q -2 204 -2 155 l -2 616 q 22 701 -2 665 q 113 800 44 733 q 220 904 180 863 l 341 788 q 290 741 338 786 q 203 658 241 695 q 165 613 165 620 l 165 206 q 229 136 165 194 q 343 37 293 77 "},"X":{"x_min":-41.671875,"x_max":620.890625,"ha":718,"o":"m 620 820 l 384 406 l 619 -4 l 433 -4 l 290 245 l 145 -4 l -40 -4 l 197 406 l -41 820 l 145 820 l 290 568 l 433 820 l 620 820 "},"ô":{"x_min":11.109375,"x_max":641.71875,"ha":783,"o":"m 641 200 q 618 115 641 150 q 570 61 604 94 q 516 15 537 27 q 427 -11 472 -11 l 248 -11 l 225 -11 q 136 15 180 -11 q 81 61 115 27 q 34 115 48 94 q 11 200 11 150 l 11 443 l 11 611 q 34 695 11 661 q 81 750 48 716 q 136 795 115 783 q 225 822 180 822 l 404 822 l 427 822 q 516 795 472 822 q 570 750 537 783 q 618 695 604 716 q 641 611 641 661 l 641 368 l 641 200 m 475 202 l 475 204 l 475 441 l 475 607 l 475 608 q 425 659 445 648 l 420 659 l 230 659 l 229 659 q 177 608 202 645 l 177 607 l 177 369 l 177 204 l 177 202 q 227 151 206 162 l 231 151 l 422 151 l 423 151 q 475 202 450 165 m 573 927 l 497 895 l 380 895 l 302 965 l 300 965 l 222 895 l 104 895 l 27 927 l 237 1109 l 362 1109 l 573 927 "},"¼":{"x_min":0,"x_max":0,"ha":921},"#":{"x_min":-27.78125,"x_max":630.609375,"ha":739,"o":"m 630 577 l 602 423 l 490 423 l 481 377 l 594 377 l 566 223 l 454 223 l 429 95 l 269 95 l 294 223 l 244 223 l 219 95 l 61 95 l 83 223 l -27 223 l 0 377 l 112 377 l 120 423 l 8 423 l 36 577 l 148 577 l 172 700 l 331 700 l 308 577 l 358 577 l 381 700 l 540 700 l 518 577 l 630 577 m 333 438 l 277 438 l 265 372 l 323 372 l 333 438 "},"Ê":{"x_min":9.71875,"x_max":559.765625,"ha":707,"o":"m 551 -4 l 9 -4 l 9 819 l 551 819 l 551 657 l 175 657 l 175 487 l 538 488 l 538 327 l 175 326 l 175 156 l 551 156 l 551 -4 m 559 927 l 483 895 l 366 895 l 288 965 l 286 965 l 208 895 l 90 895 l 13 927 l 223 1109 l 348 1109 l 559 927 "},")":{"x_min":51.390625,"x_max":381.96875,"ha":503,"o":"m 381 204 q 358 119 381 155 q 311 66 345 98 q 255 22 277 34 q 166 -4 208 -4 l 51 -4 l 51 156 l 159 156 q 193 183 173 165 q 213 205 213 201 l 213 615 q 194 639 213 620 q 159 666 175 658 l 158 666 l 51 666 l 51 827 l 166 827 q 255 802 212 827 q 309 757 276 790 q 356 702 343 723 q 381 618 381 666 l 381 204 "},"Å":{"x_min":-69.453125,"x_max":686.171875,"ha":783,"o":"m 498 1013 q 469 929 498 965 q 404 873 448 901 q 323 851 369 851 l 287 851 q 208 873 245 851 q 140 930 170 897 q 111 1013 111 966 l 111 1037 q 140 1120 111 1086 q 208 1177 166 1155 q 287 1200 250 1200 l 323 1200 q 402 1177 365 1200 q 469 1122 445 1152 q 498 1037 498 1084 l 498 1013 m 686 -4 l 508 -4 l 450 165 l 166 165 l 106 -4 l -69 -4 l 216 823 l 400 823 l 686 -4 m 381 1013 l 381 1036 l 380 1038 l 380 1041 l 380 1043 q 334 1088 351 1087 l 325 1088 l 284 1088 l 276 1088 q 244 1062 261 1080 q 227 1036 227 1044 l 227 1013 q 246 986 227 1005 q 280 961 265 966 q 283 961 281 958 l 284 962 l 326 962 l 333 962 q 380 1008 362 979 l 380 1011 l 380 1012 l 381 1013 m 397 326 l 308 584 l 219 326 l 397 326 "},"Δ":{"x_min":0,"x_max":0,"ha":786},"ø":{"x_min":-33.34375,"x_max":640.328125,"ha":789,"o":"m 640 845 l 576 730 q 627 611 627 676 l 627 198 q 602 112 627 148 q 556 59 588 91 q 502 13 523 26 q 413 -12 458 -12 l 198 -12 q 170 -9 187 -12 l 152 -41 l -33 -41 l 34 81 q -15 198 -15 137 l -15 611 q 9 695 -15 659 q 57 750 25 716 q 111 797 90 784 q 198 823 158 823 l 413 823 q 440 819 415 823 l 455 845 l 640 845 m 352 659 l 204 659 q 181 641 194 654 q 161 619 169 629 q 152 608 152 609 l 152 294 l 352 659 m 459 200 l 459 515 l 258 150 l 402 150 q 459 200 459 187 "},"â":{"x_min":-69.453125,"x_max":686.171875,"ha":783,"o":"m 686 -4 l 508 -4 l 454 154 l 163 154 l 106 -4 l -69 -4 l 216 823 l 400 823 l 686 -4 m 402 315 l 308 584 l 213 315 l 402 315 m 584 927 l 508 895 l 391 895 l 313 965 l 311 965 l 233 895 l 115 895 l 38 927 l 248 1109 l 373 1109 l 584 927 "},"}":{"x_min":37.5,"x_max":381.96875,"ha":503,"o":"m 381 204 q 358 119 381 155 q 259 13 336 84 q 156 -81 165 -72 l 37 37 q 151 136 87 77 q 215 206 215 194 l 215 613 q 177 658 215 620 q 91 741 140 695 q 40 788 43 786 l 156 902 q 206 859 165 895 q 265 804 247 822 q 313 756 284 786 q 358 701 341 726 q 381 616 381 666 l 381 204 "},"‰":{"x_min":11.109375,"x_max":1368.171875,"ha":1429,"o":"m 1368 176 q 1344 93 1368 127 q 1275 25 1319 56 q 1237 9 1262 16 q 1193 0 1212 2 l 1173 -4 l 1144 -4 q 1058 25 1086 6 q 988 93 1013 56 q 963 176 963 129 l 963 266 q 988 348 963 312 q 1058 418 1011 383 q 1093 433 1069 426 q 1133 444 1116 440 l 1151 447 l 1180 447 q 1275 418 1248 436 q 1344 348 1322 383 q 1368 266 1368 313 l 1368 176 m 925 176 q 901 93 925 127 q 832 25 876 56 q 794 9 819 16 q 750 0 769 2 l 730 -4 l 701 -4 q 615 25 643 6 q 545 93 570 56 q 520 176 520 129 l 520 266 q 545 348 520 312 q 615 418 568 383 q 650 433 626 426 q 691 444 673 440 l 708 447 l 737 447 q 832 418 805 436 q 901 348 879 383 q 925 266 925 313 l 925 176 m 793 838 l 334 -4 l 148 -4 l 609 838 l 793 838 m 415 568 q 391 486 415 520 q 320 416 365 448 q 285 401 308 408 q 244 391 262 394 l 227 387 l 198 387 q 104 416 131 398 q 34 486 62 447 q 11 568 11 520 l 11 658 q 34 740 11 705 q 104 809 56 775 q 138 825 115 818 q 180 836 162 832 l 198 838 l 227 838 q 322 809 295 827 q 391 740 369 775 q 415 658 415 705 l 415 568 m 1216 173 l 1216 268 q 1175 298 1186 290 l 1158 298 l 1116 268 l 1116 173 q 1130 159 1116 169 q 1154 144 1144 148 q 1155 143 1155 144 q 1157 143 1155 143 l 1176 143 q 1177 143 1177 143 q 1179 144 1177 144 q 1202 159 1188 148 q 1216 173 1216 169 m 773 173 l 773 268 q 732 298 743 290 l 715 298 l 673 268 l 673 173 q 687 159 673 169 q 711 144 701 148 l 712 144 l 713 143 l 733 143 l 734 144 l 736 144 q 759 159 745 148 q 773 173 773 169 m 262 565 l 262 659 q 220 691 231 683 l 205 691 l 162 659 l 162 565 q 176 550 162 561 q 200 534 190 538 l 201 534 l 225 534 l 226 534 l 227 534 q 250 550 237 538 q 262 565 262 561 "},"Ä":{"x_min":-69.453125,"x_max":686.171875,"ha":783,"o":"m 686 -4 l 508 -4 l 454 154 l 163 154 l 106 -4 l -69 -4 l 216 823 l 400 823 l 686 -4 m 402 315 l 308 584 l 213 315 l 402 315 m 522 945 l 362 945 l 362 1111 l 522 1111 l 522 945 m 252 945 l 95 945 l 95 1111 l 252 1111 l 252 945 "},"¸":{"x_min":50,"x_max":336.140625,"ha":515,"o":"m 336 -37 l 233 -227 l 50 -227 l 179 9 l 336 -37 "},"a":{"x_min":-69.453125,"x_max":686.171875,"ha":783,"o":"m 686 -4 l 508 -4 l 454 154 l 163 154 l 106 -4 l -69 -4 l 216 823 l 400 823 l 686 -4 m 402 315 l 308 584 l 213 315 l 402 315 "},"—":{"x_min":-2.78125,"x_max":619.5,"ha":756,"o":"m 619 263 l -2 263 l -2 416 l 619 416 l 619 263 "},"=":{"x_min":0,"x_max":529.203125,"ha":672,"o":"m 529 383 l 0 383 l 0 533 l 529 533 l 529 383 m 529 179 l 0 179 l 0 327 l 529 327 l 529 179 "},"N":{"x_min":9.71875,"x_max":613.9375,"ha":774,"o":"m 613 -4 l 444 -4 l 173 486 l 173 -4 l 9 -4 l 9 818 l 181 818 l 448 323 l 448 818 l 613 818 l 613 -4 "},"˚":{"x_min":111.125,"x_max":498.65625,"ha":783,"o":"m 498 1013 q 469 929 498 965 q 404 873 448 901 q 323 851 369 851 l 287 851 q 208 873 245 851 q 140 930 170 897 q 111 1013 111 966 l 111 1037 q 140 1120 111 1086 q 208 1177 166 1155 q 287 1200 250 1200 l 323 1200 q 402 1177 365 1200 q 469 1122 445 1152 q 498 1037 498 1084 l 498 1013 m 381 1013 l 381 1036 l 380 1038 l 380 1041 l 380 1043 q 334 1088 351 1087 l 325 1088 l 284 1088 l 276 1088 q 244 1062 261 1080 q 227 1036 227 1044 l 227 1013 q 246 986 227 1005 q 280 961 265 966 q 283 961 281 958 l 284 962 l 326 962 l 333 962 q 380 1008 362 979 l 380 1011 l 380 1012 l 381 1013 "},"ú":{"x_min":0,"x_max":597.265625,"ha":745,"o":"m 597 200 q 573 115 597 150 q 526 61 559 94 q 472 15 493 27 q 383 -11 427 -11 l 238 -11 l 213 -11 q 125 15 169 -11 q 70 61 104 27 q 23 115 37 94 q 0 200 0 150 l 0 820 l 166 820 l 166 204 l 168 202 q 218 151 197 162 l 220 151 l 377 151 l 379 151 q 430 202 405 165 l 430 204 l 430 820 l 597 820 l 597 200 m 550 1109 l 288 869 l 115 918 l 323 1109 l 550 1109 "},"⁄":{"x_min":0,"x_max":0,"ha":822},"2":{"x_min":6.9375,"x_max":581.984375,"ha":710,"o":"m 581 541 q 552 448 581 490 q 476 384 522 406 l 198 248 q 184 233 184 241 l 184 156 l 570 156 l 570 -4 l 18 -4 l 18 238 q 125 393 18 340 l 404 530 q 413 545 413 534 l 413 625 q 394 650 405 638 q 379 661 383 661 l 227 661 l 225 661 q 195 633 213 654 q 169 595 176 612 l 6 638 q 24 675 13 651 q 41 708 34 700 q 222 823 129 823 l 380 823 q 480 790 436 823 q 522 754 495 779 q 556 715 548 729 q 571 681 565 704 q 580 641 577 658 l 581 625 l 581 541 "},"ü":{"x_min":0,"x_max":597.265625,"ha":745,"o":"m 597 200 q 573 115 597 150 q 526 61 559 94 q 472 15 493 27 q 383 -11 427 -11 l 238 -11 l 213 -11 q 125 15 169 -11 q 70 61 104 27 q 23 115 37 94 q 0 200 0 150 l 0 820 l 166 820 l 166 204 l 168 202 q 218 151 197 162 l 220 151 l 377 151 l 379 151 q 430 202 405 165 l 430 204 l 430 820 l 597 820 l 597 200 m 508 945 l 350 945 l 350 1111 l 508 1111 l 508 945 m 241 945 l 86 945 l 86 1111 l 241 1111 l 241 945 "},"¯":{"x_min":0,"x_max":309.75,"ha":310,"o":"m 309 941 l 0 941 l 0 1109 l 309 1109 l 309 941 "},"Z":{"x_min":9.71875,"x_max":576.4375,"ha":693,"o":"m 576 -4 l 9 -4 l 9 115 l 358 657 l 9 657 l 9 819 l 576 819 l 576 697 l 230 156 l 576 156 l 576 -4 "},"u":{"x_min":0,"x_max":597.265625,"ha":750,"o":"m 597 200 q 573 115 597 150 q 526 61 559 94 q 472 15 493 27 q 383 -11 427 -11 l 238 -11 l 213 -11 q 125 15 169 -11 q 70 61 104 27 q 23 115 37 94 q 0 200 0 150 l 0 820 l 166 820 l 166 204 l 168 202 q 218 151 197 162 l 220 151 l 377 151 l 379 151 q 430 202 405 165 l 430 204 l 430 820 l 597 820 l 597 200 "},"˜":{"x_min":11.109375,"x_max":490.3125,"ha":647,"o":"m 490 965 l 334 936 q 320 963 325 958 q 311 968 316 969 l 220 951 q 100 971 156 940 q 11 1084 43 1002 l 165 1113 q 179 1086 175 1091 q 188 1082 183 1080 l 280 1100 q 401 1079 344 1112 q 490 965 458 1047 "},"Ó":{"x_min":11.109375,"x_max":655.609375,"ha":797,"o":"m 655 200 q 632 115 655 150 q 584 61 618 94 q 530 15 551 27 q 441 -11 486 -11 l 248 -11 l 225 -11 q 136 15 180 -11 q 81 61 115 27 q 34 115 48 94 q 11 200 11 150 l 11 443 l 11 611 q 34 695 11 661 q 81 750 48 716 q 136 795 115 783 q 225 822 180 822 l 418 822 l 441 822 q 530 795 486 822 q 584 750 551 783 q 632 695 618 716 q 655 611 655 661 l 655 368 l 655 200 m 488 202 l 488 204 l 488 441 l 488 607 l 488 608 q 438 659 459 648 l 434 659 l 230 659 l 229 659 q 177 608 202 645 l 177 607 l 177 369 l 177 204 l 177 202 q 227 151 206 162 l 231 151 l 436 151 l 437 151 q 488 202 463 165 m 547 1109 l 286 869 l 112 918 l 320 1109 l 547 1109 "},"k":{"x_min":9.71875,"x_max":641.71875,"ha":731,"o":"m 641 -4 l 427 -4 l 176 334 l 176 -4 l 9 -4 l 9 819 l 176 819 l 176 481 l 427 819 l 641 819 l 327 406 l 641 -4 "},"ˇ":{"x_min":-36.109375,"x_max":509.765625,"ha":538,"o":"m 509 1079 l 300 897 l 175 897 l -36 1079 l 40 1111 l 156 1111 l 234 1041 l 237 1041 l 315 1111 l 433 1111 l 509 1079 "},"Ù":{"x_min":-2.78125,"x_max":608.375,"ha":758,"o":"m 608 200 q 584 115 608 150 q 537 61 570 94 q 483 15 504 27 q 394 -11 438 -11 l 236 -11 l 211 -11 q 122 15 166 -11 q 68 61 101 27 q 20 115 34 94 q -2 200 -2 150 l -2 820 l 163 820 l 163 204 l 165 202 q 215 151 194 162 l 218 151 l 388 151 l 390 151 q 441 202 416 165 l 441 204 l 441 820 l 608 820 l 608 200 m 526 920 l 354 872 l 91 1112 l 319 1112 l 526 920 "},"Ÿ":{"x_min":0,"x_max":0,"ha":571},"¢":{"x_min":9.71875,"x_max":605.609375,"ha":731,"o":"m 605 163 q 570 102 576 109 q 390 -12 483 -12 l 387 -12 l 387 -123 l 229 -123 l 229 -12 q 134 13 172 -12 q 79 59 112 26 q 33 112 47 93 q 9 197 9 147 l 9 611 q 33 694 9 659 q 79 744 41 708 q 131 791 116 780 q 229 825 173 822 l 229 925 l 387 925 l 387 825 l 390 825 q 570 709 483 825 q 604 650 573 707 l 443 607 q 422 637 434 625 q 406 652 411 650 q 388 661 401 654 l 387 661 q 384 662 386 662 l 233 662 q 176 607 195 637 l 176 604 l 176 600 l 176 198 q 233 150 176 184 l 386 150 l 387 150 q 390 151 388 151 q 443 206 426 169 l 605 163 "},"ß":{"x_min":-20.828125,"x_max":1361.21875,"ha":1503,"o":"m 1361 200 q 1339 113 1361 148 q 1295 65 1330 100 q 1244 19 1259 30 q 1143 -11 1204 -11 l 945 -11 q 765 104 852 -11 q 730 165 759 111 l 893 208 q 945 152 909 170 q 947 152 947 152 l 950 151 l 1141 151 l 1147 151 q 1168 168 1157 156 q 1186 189 1179 180 q 1193 200 1193 198 l 1193 275 l 1188 284 l 858 377 q 774 438 804 393 q 744 536 744 483 l 744 608 q 766 693 744 658 q 809 741 776 707 q 858 787 843 776 q 959 820 902 820 l 1136 820 q 1316 705 1229 820 q 1350 645 1319 702 l 1188 602 q 1168 633 1180 620 q 1152 647 1157 645 q 1134 657 1147 650 q 1130 658 1133 657 l 968 658 l 963 657 q 941 639 954 651 q 919 618 927 627 q 911 608 911 609 l 911 541 l 915 531 l 1247 437 q 1331 377 1301 422 q 1361 279 1361 331 l 1361 200 m 609 200 q 587 113 609 148 q 543 65 579 100 q 493 19 508 30 q 391 -11 452 -11 l 194 -11 q 13 104 101 -11 q -20 165 8 111 l 141 208 q 194 152 158 170 l 195 152 q 198 151 197 151 l 390 151 l 395 151 q 416 168 405 156 q 434 189 427 180 q 441 200 441 198 l 441 275 l 437 284 l 106 377 q 22 438 52 393 q -6 536 -6 483 l -6 608 q 15 693 -6 658 q 58 741 25 707 q 106 787 91 776 q 208 820 151 820 l 384 820 q 565 705 477 820 q 598 645 568 702 l 437 602 q 417 633 429 620 q 400 647 405 645 q 383 657 395 650 l 381 658 q 379 658 380 658 l 216 658 l 212 657 q 189 639 202 651 q 168 618 176 627 q 159 608 159 609 l 159 541 l 163 531 l 495 437 q 579 377 550 422 q 609 279 609 331 l 609 200 "},"é":{"x_min":9.71875,"x_max":537.546875,"ha":693,"o":"m 537 -4 l 9 -4 l 9 819 l 537 819 l 537 657 l 175 657 l 175 487 l 525 488 l 525 327 l 175 326 l 175 156 l 537 156 l 537 -4 m 493 1109 l 231 869 l 58 918 l 266 1109 l 493 1109 "},"s":{"x_min":-20.828125,"x_max":609.765625,"ha":742,"o":"m 609 200 q 587 113 609 148 q 543 65 579 100 q 493 19 508 30 q 391 -11 452 -11 l 194 -11 q 13 104 101 -11 q -20 165 8 111 l 141 208 q 194 152 158 170 l 195 152 q 198 151 197 151 l 390 151 l 395 151 q 416 168 405 156 q 434 189 427 180 q 441 200 441 198 l 441 275 l 437 284 l 106 377 q 22 438 52 393 q -6 536 -6 483 l -6 608 q 15 693 -6 658 q 58 741 25 707 q 106 787 91 776 q 208 820 151 820 l 384 820 q 565 705 477 820 q 598 645 568 702 l 437 602 q 417 633 429 620 q 400 647 405 645 q 383 657 395 650 l 381 658 q 379 658 380 658 l 216 658 l 212 657 q 189 639 202 651 q 168 618 176 627 q 159 608 159 609 l 159 541 l 163 531 l 495 437 q 579 376 550 422 q 609 279 609 330 l 609 200 "},"B":{"x_min":9.71875,"x_max":613.9375,"ha":761,"o":"m 613 191 q 588 102 613 138 q 554 63 580 88 q 513 27 529 38 q 411 -4 470 -4 l 9 -4 l 9 820 l 411 820 q 513 787 469 820 q 554 751 529 776 q 588 712 580 726 q 613 620 613 675 l 613 522 q 566 406 613 456 q 613 291 613 356 l 613 191 m 448 526 l 448 619 q 427 645 440 633 q 409 658 413 658 l 176 658 l 176 486 l 411 486 q 427 496 415 486 q 447 519 440 506 l 448 526 m 448 197 l 448 291 q 427 318 440 305 q 409 330 413 330 l 176 330 l 176 156 l 411 156 q 427 168 415 156 q 447 191 440 179 l 448 197 "},"…":{"x_min":72.234375,"x_max":752.84375,"ha":947,"o":"m 752 -4 l 561 -4 l 561 188 l 752 188 l 752 -4 m 508 -4 l 316 -4 l 316 188 l 508 188 l 508 -4 m 263 -4 l 72 -4 l 72 188 l 263 188 l 263 -4 "},"?":{"x_min":-19.453125,"x_max":559.765625,"ha":647,"o":"m 559 541 q 529 449 559 490 q 454 384 498 408 q 422 371 451 383 q 374 347 394 359 q 354 327 354 336 l 354 227 l 191 227 l 191 333 q 222 427 191 387 q 291 486 254 468 q 360 520 329 504 q 391 545 391 536 l 391 615 l 388 627 q 368 651 380 640 q 351 662 355 662 l 200 662 l 198 661 q 195 661 197 661 q 193 659 194 661 q 141 607 158 643 l -19 650 q 13 709 11 707 q 194 825 101 825 l 351 825 q 452 791 408 825 q 531 715 508 751 q 559 625 559 675 l 559 541 m 358 -4 l 188 -4 l 191 163 l 358 163 l 358 -4 "},"H":{"x_min":9.71875,"x_max":620.890625,"ha":779,"o":"m 620 -4 l 454 -4 l 454 326 l 176 326 l 176 -4 l 9 -4 l 9 820 l 176 820 l 176 487 l 454 487 l 454 820 l 620 820 l 620 -4 "},"î":{"x_min":-147.234375,"x_max":398.640625,"ha":361,"o":"m 398 930 l 322 898 l 205 898 l 126 968 l 123 968 l 47 898 l -70 898 l -147 930 l 62 1112 l 187 1112 l 398 930 m 227 -4 l 61 -4 l 61 819 l 227 819 l 227 -4 "},"c":{"x_min":9.71875,"x_max":605.609375,"ha":731,"o":"m 605 163 q 570 102 576 109 q 390 -12 483 -12 l 231 -12 q 134 13 169 -12 q 79 59 112 26 q 33 112 47 93 q 9 197 9 147 l 9 611 q 33 694 9 659 q 79 744 41 708 q 131 791 116 780 q 233 825 176 825 l 390 825 q 570 709 483 825 q 604 650 573 707 l 443 607 q 422 637 434 625 q 406 652 411 650 q 388 661 401 654 l 387 661 q 384 662 386 662 l 233 662 q 176 607 195 637 l 176 604 l 176 600 l 176 198 q 233 150 176 184 l 386 150 l 387 150 q 390 151 388 151 q 443 206 426 169 l 605 163 "},"¶":{"x_min":1.390625,"x_max":607,"ha":729,"o":"m 607 -4 l 441 -4 l 441 326 l 419 326 l 419 -4 l 258 -4 l 258 326 l 206 326 q 104 356 147 326 q 62 393 88 368 q 27 431 36 418 q 1 519 1 470 l 1 620 q 27 711 1 672 q 62 750 36 725 q 104 787 88 776 q 206 819 147 819 l 607 819 l 607 -4 m 441 486 l 441 657 l 419 657 l 419 486 l 441 486 m 258 486 l 258 657 l 208 657 l 205 657 q 170 623 183 641 l 169 618 l 169 522 q 208 486 200 486 l 258 486 "},"−":{"x_min":-2.78125,"x_max":502.8125,"ha":645,"o":"m 502 263 l -2 263 l -2 418 l 502 418 l 502 263 "},"≠":{"x_min":0,"x_max":0,"ha":1014},"•":{"x_min":37.5,"x_max":438.921875,"ha":617,"o":"m 438 336 q 406 243 438 279 q 341 186 379 209 q 255 162 305 162 l 222 162 q 137 186 172 162 q 68 244 94 213 q 37 336 37 280 l 37 356 q 136 504 37 438 q 222 527 170 527 l 255 527 q 341 504 306 527 q 438 356 438 437 l 438 336 "},"¥":{"x_min":-51.390625,"x_max":652.828125,"ha":685,"o":"m 652 819 l 456 526 l 556 526 l 556 369 l 381 369 l 381 336 l 556 336 l 556 181 l 381 181 l 381 -4 l 216 -4 l 216 181 l 36 181 l 36 336 l 216 336 l 216 369 l 36 369 l 36 526 l 138 526 l -51 819 l 134 819 l 300 566 l 466 819 l 652 819 "},"(":{"x_min":-2.78125,"x_max":327.796875,"ha":472,"o":"m 327 -4 l 211 -4 q 123 22 170 -4 q 68 67 101 34 q 20 119 34 100 q -1 204 -1 152 l -2 618 q 20 702 -2 669 q 68 757 34 723 q 122 802 101 790 q 211 827 165 827 l 327 827 l 327 666 l 219 666 q 165 613 188 645 l 165 205 q 219 156 165 190 l 327 156 l 327 -4 "},"U":{"x_min":-2.78125,"x_max":608.375,"ha":758,"o":"m 608 200 q 584 115 608 150 q 537 61 570 94 q 483 15 504 27 q 394 -11 438 -11 l 236 -11 l 211 -11 q 122 15 166 -11 q 68 61 101 27 q 20 115 34 94 q -2 200 -2 150 l -2 820 l 163 820 l 163 204 l 165 202 q 215 151 194 162 l 218 151 l 388 151 l 390 151 q 441 202 416 165 l 441 204 l 441 820 l 608 820 l 608 200 "},"◊":{"x_min":62.5,"x_max":579.21875,"ha":776,"o":"m 579 406 q 545 308 579 350 q 466 238 520 275 q 375 213 427 213 l 268 213 q 175 238 213 213 q 94 308 118 276 q 62 406 62 348 l 62 436 q 94 534 62 494 q 175 604 118 566 q 268 630 215 630 l 375 630 q 466 604 426 630 q 545 534 520 568 q 579 436 579 493 l 579 406 m 420 405 l 420 408 l 420 434 l 420 438 q 375 476 420 447 l 266 476 q 220 438 220 448 l 220 434 l 220 408 l 220 405 q 263 368 220 391 l 266 368 l 376 368 l 377 368 q 420 405 420 397 "},"Ñ":{"x_min":9.71875,"x_max":613.9375,"ha":774,"o":"m 613 -4 l 444 -4 l 173 486 l 173 -4 l 9 -4 l 9 818 l 181 818 l 448 323 l 448 818 l 613 818 l 613 -4 m 563 954 l 408 925 q 395 952 400 945 q 384 957 391 958 l 294 940 q 174 959 230 927 q 84 1073 118 991 l 238 1102 q 252 1075 248 1082 q 262 1070 256 1069 l 354 1088 q 475 1068 418 1101 q 563 954 531 1036 "},"F":{"x_min":9.71875,"x_max":551.4375,"ha":679,"o":"m 551 657 l 175 657 l 175 487 l 531 487 l 531 326 l 175 326 l 175 -4 l 9 -4 l 9 819 l 551 819 l 551 657 "},":":{"x_min":44.453125,"x_max":237.515625,"ha":428,"o":"m 237 336 l 44 336 l 44 531 l 237 531 l 237 336 m 237 -4 l 44 -4 l 44 193 l 237 193 l 237 -4 "},"Û":{"x_min":-2.78125,"x_max":608.375,"ha":758,"o":"m 608 200 q 584 115 608 150 q 537 61 570 94 q 483 15 504 27 q 394 -11 438 -11 l 236 -11 l 211 -11 q 122 15 166 -11 q 68 61 101 27 q 20 115 34 94 q -2 200 -2 150 l -2 820 l 163 820 l 163 204 l 165 202 q 215 151 194 162 l 218 151 l 388 151 l 390 151 q 441 202 416 165 l 441 204 l 441 820 l 608 820 l 608 200 m 577 926 l 501 894 l 384 894 l 306 963 l 304 963 l 226 894 l 108 894 l 31 926 l 241 1108 l 366 1108 l 577 926 "},"*":{"x_min":-38.890625,"x_max":583.375,"ha":660,"o":"m 583 775 l 416 616 l 581 468 l 420 419 l 344 493 l 344 398 l 197 398 l 197 491 l 123 419 l -38 468 l 122 619 l -38 775 l 122 819 l 197 750 l 197 841 l 344 841 l 344 748 l 420 819 l 583 775 "},"†":{"x_min":23.609375,"x_max":362.53125,"ha":469,"o":"m 362 452 l 272 452 l 272 145 l 112 145 l 112 452 l 23 452 l 23 605 l 112 605 l 112 809 l 272 809 l 272 605 l 362 605 l 362 452 "},"°":{"x_min":-2.78125,"x_max":384.75,"ha":504,"o":"m 384 823 q 355 737 384 772 q 290 682 325 704 q 209 659 255 659 l 173 659 q 94 682 129 659 q 26 738 51 709 q -2 823 -2 775 l -2 845 q 27 930 -2 893 q 94 986 56 962 q 173 1009 130 1009 l 209 1009 q 290 986 254 1009 q 355 932 327 962 q 384 845 384 895 l 384 823 m 268 819 l 268 823 l 268 844 l 268 850 q 245 879 259 862 q 220 897 230 895 l 211 897 l 170 897 l 163 897 q 131 872 148 890 q 113 844 113 854 l 113 823 q 132 794 113 812 q 166 769 151 776 l 169 769 l 170 770 l 212 770 l 213 769 q 216 769 215 768 q 268 819 244 782 "},"V":{"x_min":-62.5,"x_max":693.109375,"ha":790,"o":"m 693 820 l 406 -4 l 223 -4 l -62 820 l 113 820 l 315 229 l 516 820 l 693 820 "},"å":{"x_min":-69.453125,"x_max":686.171875,"ha":783,"o":"m 498 1013 q 469 929 498 965 q 404 873 448 901 q 323 851 369 851 l 287 851 q 208 873 245 851 q 140 930 170 897 q 111 1013 111 966 l 111 1037 q 140 1120 111 1086 q 208 1177 166 1155 q 287 1200 250 1200 l 323 1200 q 402 1177 365 1200 q 469 1122 445 1152 q 498 1037 498 1084 l 498 1013 m 686 -4 l 508 -4 l 450 165 l 166 165 l 106 -4 l -69 -4 l 216 823 l 400 823 l 686 -4 m 381 1013 l 381 1036 l 380 1038 l 380 1041 l 380 1043 q 334 1088 351 1087 l 325 1088 l 284 1088 l 276 1088 q 244 1062 261 1080 q 227 1036 227 1044 l 227 1013 q 246 986 227 1005 q 280 961 265 966 q 283 961 281 958 l 284 962 l 326 962 l 333 962 q 380 1008 362 979 l 380 1011 l 380 1012 l 381 1013 m 397 326 l 308 584 l 219 326 l 397 326 "}," ":{"x_min":0,"x_max":0,"ha":253},"0":{"x_min":2.78125,"x_max":593.109375,"ha":710,"o":"m 593 198 q 569 113 593 148 q 522 59 555 93 q 468 13 488 26 q 379 -12 423 -12 l 241 -12 l 216 -12 q 127 13 172 -12 q 73 59 106 26 q 26 113 40 93 q 2 198 2 148 l 2 443 l 2 613 q 26 698 2 663 q 73 752 40 719 q 127 798 106 786 q 216 825 172 825 l 354 825 l 379 825 q 468 798 423 825 q 522 752 488 786 q 569 698 555 719 q 593 613 593 663 l 593 368 l 593 198 m 426 202 l 426 441 l 426 609 l 425 611 q 375 662 395 651 l 372 662 l 222 662 l 220 662 q 169 611 194 648 l 169 609 l 169 369 l 169 202 l 169 201 q 220 150 197 162 l 223 150 l 373 150 l 375 150 q 425 201 398 162 l 426 202 "},"”":{"x_min":38.890625,"x_max":491.703125,"ha":549,"o":"m 491 686 l 479 581 l 318 581 l 331 705 l 331 888 l 491 888 l 491 686 m 211 686 l 198 581 l 38 581 l 52 705 l 52 888 l 211 888 l 211 686 "},"¾":{"x_min":0,"x_max":0,"ha":928},"@":{"x_min":-2.78125,"x_max":668.109375,"ha":763,"o":"m 668 194 l 515 194 l 513 208 q 472 188 483 188 l 400 188 q 290 222 338 188 q 222 291 247 252 q 197 379 197 327 l 197 416 q 222 504 197 468 q 290 572 245 540 q 395 605 336 605 l 487 605 l 487 616 q 448 665 458 659 l 215 665 q 156 613 175 638 l 156 193 q 177 168 156 183 q 213 144 197 152 l 543 144 l 569 -11 l 209 -11 q 122 15 169 -11 q 67 59 100 26 q 20 112 34 91 q -2 198 -2 148 l -2 611 q 19 695 -2 662 q 66 749 33 715 q 122 795 100 783 q 209 820 169 820 l 433 820 q 622 695 537 820 q 648 611 648 657 l 648 331 l 668 194 m 487 372 l 487 448 l 387 448 l 384 448 q 376 443 383 447 q 363 434 369 438 q 356 426 358 430 l 356 420 l 356 373 l 356 372 q 383 344 375 344 l 387 344 l 455 344 l 462 348 q 487 372 470 355 "},"ö":{"x_min":11.109375,"x_max":641.71875,"ha":783,"o":"m 641 200 q 618 115 641 150 q 570 61 604 94 q 516 15 537 27 q 427 -11 472 -11 l 248 -11 l 225 -11 q 136 15 180 -11 q 81 61 115 27 q 34 115 48 94 q 11 200 11 150 l 11 443 l 11 611 q 34 695 11 661 q 81 750 48 716 q 136 795 115 783 q 225 822 180 822 l 404 822 l 427 822 q 516 795 472 822 q 570 750 537 783 q 618 695 604 716 q 641 611 641 661 l 641 368 l 641 200 m 475 202 l 475 204 l 475 441 l 475 607 l 475 608 q 425 659 445 648 l 420 659 l 230 659 l 229 659 q 177 608 202 645 l 177 607 l 177 369 l 177 204 l 177 202 q 227 151 206 162 l 231 151 l 422 151 l 423 151 q 475 202 450 165 m 544 945 l 386 945 l 386 1111 l 544 1111 l 544 945 m 277 945 l 122 945 l 122 1111 l 277 1111 l 277 945 "},"i":{"x_min":9.71875,"x_max":176.40625,"ha":335,"o":"m 176 -4 l 9 -4 l 9 819 l 176 819 l 176 -4 "},"≤":{"x_min":-9.71875,"x_max":519.484375,"ha":640,"o":"m 519 537 l 222 379 l 518 219 l 518 38 l -9 325 l -9 431 l 519 716 l 519 537 "},"Õ":{"x_min":11.109375,"x_max":655.609375,"ha":797,"o":"m 655 200 q 632 115 655 150 q 584 61 618 94 q 530 15 551 27 q 441 -11 486 -11 l 248 -11 l 225 -11 q 136 15 180 -11 q 81 61 115 27 q 34 115 48 94 q 11 200 11 150 l 11 443 l 11 611 q 34 695 11 661 q 81 750 48 716 q 136 795 115 783 q 225 822 180 822 l 418 822 l 441 822 q 530 795 486 822 q 584 750 551 783 q 632 695 618 716 q 655 611 655 661 l 655 368 l 655 200 m 488 202 l 488 204 l 488 441 l 488 607 l 488 608 q 438 659 459 648 l 434 659 l 230 659 l 229 659 q 177 608 202 645 l 177 607 l 177 369 l 177 204 l 177 202 q 227 151 206 162 l 231 151 l 436 151 l 437 151 q 488 202 463 165 m 583 954 l 427 925 q 413 952 418 947 q 404 957 409 958 l 313 940 q 193 960 250 929 q 104 1073 136 991 l 258 1102 q 272 1075 268 1080 q 281 1070 276 1069 l 373 1088 q 493 1068 436 1101 q 583 954 551 1036 "},"]":{"x_min":51.390625,"x_max":340.3125,"ha":458,"o":"m 340 -4 l 51 -4 l 51 150 l 173 150 l 173 665 l 51 665 l 51 819 l 340 819 l 340 -4 "},"m":{"x_min":9.71875,"x_max":740.34375,"ha":901,"o":"m 740 -4 l 576 -4 l 576 497 l 427 193 l 320 193 l 173 494 l 173 -4 l 9 -4 l 9 819 l 191 819 l 376 444 l 559 819 l 740 819 l 740 -4 "},"8":{"x_min":2.78125,"x_max":580.609375,"ha":710,"o":"m 580 184 q 554 94 580 133 q 519 54 545 80 q 477 18 493 29 q 377 -13 434 -13 l 362 -13 l 220 -13 l 205 -13 q 105 18 148 -13 q 63 54 90 29 q 29 94 37 80 q 2 184 2 133 l 2 295 q 51 411 2 359 q 2 523 2 462 l 2 626 q 29 716 2 677 q 63 755 37 730 q 105 791 90 780 q 205 825 150 825 l 220 825 l 362 825 l 377 825 q 477 791 433 825 q 519 755 493 780 q 554 716 545 730 q 580 626 580 677 l 580 523 q 531 411 580 462 q 580 295 580 359 l 580 184 m 413 527 l 413 625 q 393 650 405 638 q 376 662 380 662 l 358 662 l 225 662 l 206 662 q 190 651 202 662 q 169 626 177 640 l 169 527 l 170 525 q 189 501 177 512 q 205 490 201 490 l 206 490 l 376 490 l 377 490 q 393 501 381 490 q 412 525 405 512 l 413 527 m 413 184 l 413 291 l 412 295 q 393 319 405 308 q 377 330 381 330 l 376 330 l 206 330 l 205 330 q 189 319 201 330 q 170 295 177 308 l 169 291 l 169 186 q 190 160 177 172 q 206 148 202 148 l 225 148 l 358 148 l 376 148 q 393 159 380 148 q 413 184 405 170 "},"ž":{"x_min":0,"x_max":0,"ha":710},"R":{"x_min":9.71875,"x_max":676.4375,"ha":776,"o":"m 676 -4 l 484 -4 l 279 312 l 176 312 l 176 -4 l 9 -4 l 9 819 l 411 819 q 513 787 470 819 q 588 711 561 752 q 615 620 615 672 l 615 505 q 588 418 615 456 q 554 377 579 402 q 513 343 529 352 q 462 318 495 331 l 676 -4 m 447 505 l 447 508 l 447 619 l 447 622 q 412 657 429 654 l 408 657 l 175 657 l 175 472 l 409 472 q 427 483 413 472 q 447 505 441 494 "},"á":{"x_min":-69.453125,"x_max":686.171875,"ha":783,"o":"m 686 -4 l 508 -4 l 454 154 l 163 154 l 106 -4 l -69 -4 l 216 823 l 400 823 l 686 -4 m 402 315 l 308 584 l 213 315 l 402 315 m 520 1109 l 259 869 l 86 918 l 294 1109 l 520 1109 "},"×":{"x_min":0,"x_max":0,"ha":761},"o":{"x_min":11.109375,"x_max":641.71875,"ha":795,"o":"m 641 200 q 618 115 641 150 q 570 61 604 94 q 516 15 537 27 q 427 -11 472 -11 l 248 -11 l 225 -11 q 136 15 180 -11 q 81 61 115 27 q 34 115 48 94 q 11 200 11 150 l 11 443 l 11 611 q 34 695 11 661 q 81 750 48 716 q 136 795 115 783 q 225 822 180 822 l 404 822 l 427 822 q 516 795 472 822 q 570 750 537 783 q 618 695 604 716 q 641 611 641 661 l 641 368 l 641 200 m 475 202 l 475 204 l 475 441 l 475 607 l 475 608 q 425 659 445 648 l 420 659 l 230 659 l 229 659 q 177 608 202 645 l 177 607 l 177 369 l 177 204 l 177 202 q 227 151 206 162 l 231 151 l 422 151 l 423 151 q 475 202 450 165 "},"5":{"x_min":9.71875,"x_max":588.9375,"ha":710,"o":"m 588 186 q 562 95 588 134 q 487 19 534 54 q 383 -12 444 -12 l 223 -12 q 41 102 129 -12 q 34 111 37 108 q 9 163 20 130 l 172 206 q 225 150 187 172 l 227 150 l 381 150 l 386 150 q 422 186 408 163 l 423 326 q 386 363 408 348 l 383 365 l 41 365 l 41 820 l 550 820 l 550 658 l 205 658 l 205 525 l 383 525 q 487 491 443 525 q 528 456 502 480 q 562 418 554 431 q 588 329 588 379 l 588 186 "},"õ":{"x_min":11.109375,"x_max":641.71875,"ha":783,"o":"m 641 200 q 618 115 641 150 q 570 61 604 94 q 516 15 537 27 q 427 -11 472 -11 l 248 -11 l 225 -11 q 136 15 180 -11 q 81 61 115 27 q 34 115 48 94 q 11 200 11 150 l 11 443 l 11 611 q 34 695 11 661 q 81 750 48 716 q 136 795 115 783 q 225 822 180 822 l 404 822 l 427 822 q 516 795 472 822 q 570 750 537 783 q 618 695 604 716 q 641 611 641 661 l 641 368 l 641 200 m 475 202 l 475 204 l 475 441 l 475 607 l 475 608 q 425 659 445 648 l 420 659 l 230 659 l 229 659 q 177 608 202 645 l 177 607 l 177 369 l 177 204 l 177 202 q 227 151 206 162 l 231 151 l 422 151 l 423 151 q 475 202 450 165 m 534 963 l 379 934 q 365 962 369 957 q 355 966 361 968 l 265 950 q 144 969 201 937 q 55 1083 87 1001 l 209 1112 q 223 1084 219 1090 q 233 1080 227 1079 l 325 1098 q 445 1078 388 1111 q 534 963 502 1045 "},"7":{"x_min":-2.78125,"x_max":563.9375,"ha":710,"o":"m 563 693 l 220 -4 l 31 -2 l 359 657 l -2 657 l -2 819 l 563 819 l 563 693 "},"K":{"x_min":9.71875,"x_max":661.15625,"ha":731,"o":"m 661 -4 l 443 -4 l 176 304 l 176 -4 l 9 -4 l 9 819 l 176 819 l 176 509 l 441 819 l 659 819 l 304 406 l 661 -4 "},",":{"x_min":-22.21875,"x_max":268.078125,"ha":443,"o":"m 268 122 l 158 -113 l -22 -113 l 111 170 l 268 122 "},"d":{"x_min":9.71875,"x_max":601.4375,"ha":754,"o":"m 601 202 q 579 119 601 154 q 532 66 566 98 q 476 22 498 34 q 388 -4 429 -4 l 9 -4 l 9 822 l 388 822 q 477 797 440 822 q 530 750 498 783 q 577 695 562 716 q 601 612 601 662 l 601 202 m 436 205 l 436 608 l 436 609 q 383 661 409 647 l 380 661 l 173 661 l 173 156 l 381 156 l 383 156 q 436 205 436 188 "},"¨":{"x_min":27.78125,"x_max":450.03125,"ha":461,"o":"m 450 945 l 291 945 l 291 1111 l 450 1111 l 450 945 m 183 945 l 27 945 l 27 1111 l 183 1111 l 183 945 "},"Ô":{"x_min":11.109375,"x_max":655.609375,"ha":797,"o":"m 655 200 q 632 115 655 150 q 584 61 618 94 q 530 15 551 27 q 441 -11 486 -11 l 248 -11 l 225 -11 q 136 15 180 -11 q 81 61 115 27 q 34 115 48 94 q 11 200 11 150 l 11 443 l 11 611 q 34 695 11 661 q 81 750 48 716 q 136 795 115 783 q 225 822 180 822 l 418 822 l 441 822 q 530 795 486 822 q 584 750 551 783 q 632 695 618 716 q 655 611 655 661 l 655 368 l 655 200 m 488 202 l 488 204 l 488 441 l 488 607 l 488 608 q 438 659 459 648 l 434 659 l 230 659 l 229 659 q 177 608 202 645 l 177 607 l 177 369 l 177 204 l 177 202 q 227 151 206 162 l 231 151 l 436 151 l 437 151 q 488 202 463 165 m 601 930 l 525 898 l 408 898 l 330 968 l 327 968 l 250 898 l 131 898 l 55 930 l 265 1112 l 390 1112 l 601 930 "},"E":{"x_min":9.71875,"x_max":551.4375,"ha":707,"o":"m 551 -4 l 9 -4 l 9 819 l 551 819 l 551 657 l 175 657 l 175 487 l 538 488 l 538 327 l 175 326 l 175 156 l 551 156 l 551 -4 "},"Y":{"x_min":-69.453125,"x_max":634.765625,"ha":703,"o":"m 634 819 l 363 365 l 363 -4 l 198 -4 l 198 365 l -69 819 l 116 819 l 281 537 l 448 819 l 634 819 "},"\"":{"x_min":38.890625,"x_max":491.703125,"ha":561,"o":"m 491 686 l 479 581 l 318 581 l 331 705 l 331 888 l 491 888 l 491 686 m 211 686 l 198 581 l 38 581 l 52 705 l 52 888 l 211 888 l 211 686 "},"‹":{"x_min":27.78125,"x_max":409.75,"ha":563,"o":"m 409 168 l 229 120 l 27 322 l 27 384 l 229 587 l 408 536 l 218 354 l 409 168 "},"˙":{"x_min":66.671875,"x_max":236.125,"ha":310,"o":"m 236 941 l 66 941 l 66 1109 l 236 1109 l 236 941 "},"ê":{"x_min":-4.171875,"x_max":541.703125,"ha":693,"o":"m 537 -4 l 9 -4 l 9 819 l 537 819 l 537 657 l 175 657 l 175 487 l 525 488 l 525 327 l 175 326 l 175 156 l 537 156 l 537 -4 m 541 926 l 465 894 l 348 894 l 270 963 l 268 963 l 190 894 l 72 894 l -4 926 l 205 1108 l 330 1108 l 541 926 "},"Ï":{"x_min":-65.28125,"x_max":356.96875,"ha":374,"o":"m 240 -4 l 72 -4 l 72 819 l 240 819 l 240 -4 m 356 944 l 198 944 l 198 1109 l 356 1109 l 356 944 m 90 944 l -65 944 l -65 1109 l 90 1109 l 90 944 "},"„":{"x_min":38.890625,"x_max":494.484375,"ha":549,"o":"m 494 686 l 481 581 l 320 581 l 334 705 l 334 888 l 494 888 l 494 686 m 211 686 l 198 581 l 38 581 l 52 705 l 52 888 l 211 888 l 211 686 "},"Â":{"x_min":-69.453125,"x_max":686.171875,"ha":811,"o":"m 686 -4 l 508 -4 l 454 154 l 163 154 l 106 -4 l -69 -4 l 216 823 l 400 823 l 686 -4 m 402 315 l 308 584 l 213 315 l 402 315 m 580 929 l 504 897 l 387 897 l 309 966 l 306 966 l 229 897 l 111 897 l 34 929 l 244 1111 l 369 1111 l 580 929 "},"Í":{"x_min":-45.84375,"x_max":393.09375,"ha":374,"o":"m 393 1109 l 131 869 l -45 916 l 165 1109 l 393 1109 m 240 -4 l 72 -4 l 72 819 l 240 819 l 240 -4 "},"´":{"x_min":58.34375,"x_max":493.09375,"ha":471,"o":"m 493 1109 l 231 869 l 58 918 l 266 1109 l 493 1109 "},"ì":{"x_min":-104.171875,"x_max":334.75,"ha":338,"o":"m 334 912 l 158 865 l -104 1105 l 123 1105 l 334 912 m 204 -4 l 37 -4 l 37 819 l 204 819 l 204 -4 "},"±":{"x_min":0,"x_max":0,"ha":635},"Ú":{"x_min":-2.78125,"x_max":608.375,"ha":758,"o":"m 608 200 q 584 115 608 150 q 537 61 570 94 q 483 15 504 27 q 394 -11 438 -11 l 236 -11 l 211 -11 q 122 15 166 -11 q 68 61 101 27 q 20 115 34 94 q -2 200 -2 150 l -2 820 l 163 820 l 163 204 l 165 202 q 215 151 194 162 l 218 151 l 388 151 l 390 151 q 441 202 416 165 l 441 204 l 441 820 l 608 820 l 608 200 m 533 1109 l 272 869 l 98 918 l 306 1109 l 533 1109 "},"|":{"x_min":22.21875,"x_max":180.5625,"ha":285,"o":"m 180 -123 l 22 -123 l 22 925 l 180 925 l 180 -123 "},"§":{"x_min":-15.28125,"x_max":593.109375,"ha":713,"o":"m 593 645 l 443 598 q 468 586 455 594 q 545 513 511 558 q 579 411 579 470 l 579 398 q 537 287 579 336 q 576 186 576 244 l 576 168 q 550 84 576 123 q 486 19 523 47 q 381 -13 441 -13 l 201 -13 q 29 87 105 -13 q -15 168 12 109 l 136 218 q 126 225 134 219 q 45 295 70 262 q 13 398 13 337 l 13 411 q 51 518 13 472 q 4 638 12 558 q 31 733 0 688 q 200 830 101 830 l 381 830 q 484 797 440 830 q 593 645 551 747 m 443 598 q 381 673 404 673 l 201 673 q 179 661 194 673 q 165 644 165 648 q 170 623 165 623 l 355 613 q 443 598 412 611 m 420 395 l 420 411 q 377 455 401 438 l 373 455 l 212 461 l 209 461 q 175 418 193 451 l 173 412 l 173 401 l 175 391 q 188 373 175 390 q 208 355 202 356 q 293 350 212 354 q 377 347 373 347 l 380 347 q 398 364 388 352 q 414 385 408 376 q 420 395 420 394 m 415 168 l 415 172 l 415 188 l 409 188 l 219 197 q 140 216 173 200 q 198 141 180 141 l 381 141 q 415 168 397 141 "},"Ý":{"x_min":0,"x_max":0,"ha":807},"b":{"x_min":9.71875,"x_max":601.4375,"ha":749,"o":"m 601 191 q 576 102 601 138 q 542 63 568 88 q 501 27 516 38 q 411 -4 458 -4 l 9 -4 l 9 820 l 398 820 q 501 787 456 820 q 542 751 516 776 q 576 712 568 726 q 601 620 601 675 l 601 522 q 554 406 601 456 q 601 291 601 356 l 601 191 m 436 526 l 436 619 q 414 645 427 633 q 397 658 401 658 l 176 658 l 176 486 l 398 486 q 415 496 402 486 q 434 519 427 506 l 436 526 m 436 197 l 436 291 q 414 318 427 305 q 397 330 401 330 l 176 330 l 176 156 l 398 156 q 415 168 402 156 q 434 191 427 179 l 436 197 "},"q":{"x_min":9.71875,"x_max":640.328125,"ha":793,"o":"m 640 200 q 616 115 640 150 q 569 61 602 94 q 515 15 536 27 q 477 -1 487 1 l 531 -126 l 354 -126 l 305 -11 l 233 -11 l 223 -11 q 134 15 179 -11 q 80 61 113 27 q 33 115 47 94 q 9 200 9 150 l 9 443 l 9 611 q 33 695 9 661 q 80 750 47 716 q 134 795 113 783 q 223 822 179 822 l 402 822 l 426 822 q 515 795 470 822 q 569 750 536 783 q 616 695 602 716 q 640 611 640 661 l 640 368 l 640 200 m 473 202 l 473 204 l 473 441 l 473 607 l 473 608 q 423 659 444 648 l 419 659 l 229 659 l 227 659 q 176 608 201 645 l 176 607 l 176 369 l 176 204 l 176 202 q 227 151 204 163 l 230 151 l 238 151 l 234 162 l 387 213 l 413 151 l 420 151 l 422 151 q 473 202 448 165 "},"Ω":{"x_min":0,"x_max":0,"ha":618},"Ö":{"x_min":11.109375,"x_max":655.609375,"ha":797,"o":"m 655 200 q 632 115 655 150 q 584 61 618 94 q 530 15 551 27 q 441 -11 486 -11 l 248 -11 l 225 -11 q 136 15 180 -11 q 81 61 115 27 q 34 115 48 94 q 11 200 11 150 l 11 443 l 11 611 q 34 695 11 661 q 81 750 48 716 q 136 795 115 783 q 225 822 180 822 l 418 822 l 441 822 q 530 795 486 822 q 584 750 551 783 q 632 695 618 716 q 655 611 655 661 l 655 368 l 655 200 m 488 202 l 488 204 l 488 441 l 488 607 l 488 608 q 438 659 459 648 l 434 659 l 230 659 l 229 659 q 177 608 202 645 l 177 607 l 177 369 l 177 204 l 177 202 q 227 151 206 162 l 231 151 l 436 151 l 437 151 q 488 202 463 165 m 544 944 l 384 944 l 384 1111 l 544 1111 l 544 944 m 275 944 l 119 944 l 119 1111 l 275 1111 l 275 944 "},"ﬂ":{"x_min":0,"x_max":0,"ha":610},"z":{"x_min":9.71875,"x_max":576.4375,"ha":693,"o":"m 576 -4 l 9 -4 l 9 115 l 358 657 l 9 657 l 9 819 l 576 819 l 576 697 l 230 156 l 576 156 l 576 -4 "},"™":{"x_min":9.71875,"x_max":708.390625,"ha":846,"o":"m 708 398 l 559 397 l 559 550 l 548 519 l 462 519 l 450 548 l 450 397 l 298 397 l 298 679 l 258 679 l 258 397 l 108 397 l 108 677 l 9 677 l 9 822 l 312 822 l 333 822 l 458 822 l 501 738 l 550 822 l 708 822 l 708 398 "},"ã":{"x_min":-69.453125,"x_max":686.171875,"ha":783,"o":"m 686 -4 l 508 -4 l 454 154 l 163 154 l 106 -4 l -69 -4 l 216 823 l 400 823 l 686 -4 m 402 315 l 308 584 l 213 315 l 402 315 m 570 957 l 415 927 q 402 954 406 948 q 391 959 398 961 l 301 943 q 181 963 237 932 q 91 1076 125 994 l 245 1105 q 259 1078 255 1084 q 269 1073 263 1072 l 361 1091 q 481 1072 425 1104 q 570 957 538 1040 "},"æ":{"x_min":-69.453125,"x_max":686.171875,"ha":842,"o":"m 686 -2 l 281 -4 l 281 -2 l 270 -2 l 270 163 l 166 163 l 108 -4 l -69 -4 l 216 820 l 398 820 l 686 819 l 686 657 l 437 657 l 437 487 l 686 487 l 686 326 l 437 326 l 437 158 l 686 158 l 686 -2 m 269 326 l 269 470 l 219 326 l 269 326 "},"®":{"x_min":11.109375,"x_max":1159.8125,"ha":1313,"o":"m 790 159 l 622 159 l 552 279 l 552 159 l 404 159 l 404 644 l 605 644 q 698 615 658 644 q 766 548 740 586 q 782 475 782 525 l 782 462 q 782 445 782 459 q 782 425 782 430 q 780 409 782 420 q 775 391 779 398 q 766 375 772 383 q 698 313 744 344 l 790 159 m 643 458 l 643 468 q 608 500 633 484 l 607 500 l 605 501 l 552 501 l 552 429 l 605 429 q 622 439 608 429 q 643 458 636 450 m 356 37 l 234 -80 q 186 -34 220 -66 q 134 13 151 -2 q 36 119 55 90 q 11 204 11 155 l 11 616 q 36 701 11 665 q 127 800 58 733 q 234 904 194 863 l 355 788 q 304 741 352 786 q 217 658 255 695 q 179 613 179 620 l 179 206 q 243 136 179 194 q 356 37 306 77 m 1159 204 q 1136 119 1159 155 q 1037 13 1113 84 q 934 -81 944 -73 l 815 37 q 929 136 865 77 q 993 206 993 194 l 993 613 q 955 658 993 620 q 869 741 918 695 q 818 788 820 786 l 934 902 q 984 859 943 895 q 1043 804 1025 822 q 1091 756 1062 786 q 1136 701 1119 726 q 1159 616 1159 666 l 1159 204 "},"É":{"x_min":9.71875,"x_max":551.4375,"ha":707,"o":"m 551 -4 l 9 -4 l 9 819 l 551 819 l 551 657 l 175 657 l 175 487 l 538 488 l 538 327 l 175 326 l 175 156 l 551 156 l 551 -4 m 543 1111 l 281 870 l 108 919 l 316 1111 l 543 1111 "},"~":{"x_min":11.109375,"x_max":490.3125,"ha":647,"o":"m 490 955 l 334 926 q 320 954 325 948 q 311 958 316 959 l 220 941 q 100 961 156 930 q 11 1075 43 993 l 165 1104 q 179 1076 175 1082 q 188 1072 183 1070 l 280 1090 q 401 1070 344 1102 q 490 955 458 1037 "},"³":{"x_min":0,"x_max":0,"ha":449},"¡":{"x_min":66.671875,"x_max":236.125,"ha":310,"o":"m 236 666 l 66 666 l 66 834 l 236 834 l 236 666 m 234 2 l 72 2 l 72 604 l 234 604 l 234 2 "},"[":{"x_min":-2.78125,"x_max":287.515625,"ha":429,"o":"m 287 -4 l -2 -4 l -2 819 l 287 819 l 287 665 l 163 665 l 163 150 l 287 150 l 287 -4 "},"L":{"x_min":9.71875,"x_max":543.09375,"ha":645,"o":"m 543 -4 l 9 -4 l 9 819 l 175 819 l 175 156 l 543 156 l 543 -4 "}," ":{"x_min":0,"x_max":0,"ha":342},"∑":{"x_min":0,"x_max":0,"ha":635},"%":{"x_min":11.109375,"x_max":925.078125,"ha":1003,"o":"m 925 176 q 901 93 925 127 q 832 25 876 56 q 794 9 819 16 q 750 0 769 2 l 730 -4 l 701 -4 q 615 25 643 6 q 545 93 570 56 q 520 176 520 129 l 520 266 q 545 348 520 312 q 615 418 568 383 q 650 433 626 426 q 691 444 673 440 l 708 447 l 737 447 q 832 418 805 436 q 901 348 879 383 q 925 266 925 313 l 925 176 m 793 838 l 334 -4 l 148 -4 l 609 838 l 793 838 m 415 568 q 391 486 415 520 q 320 416 365 448 q 285 401 308 408 q 244 391 262 394 l 227 387 l 198 387 q 104 416 131 398 q 34 486 62 447 q 11 568 11 520 l 11 658 q 34 740 11 705 q 104 809 56 775 q 138 825 115 818 q 180 836 162 832 l 198 838 l 227 838 q 322 809 295 827 q 391 740 369 775 q 415 658 415 705 l 415 568 m 773 173 l 773 268 q 732 298 743 290 l 715 298 l 673 268 l 673 173 q 687 159 673 169 q 711 144 701 148 l 712 144 l 713 143 l 733 143 l 734 144 l 736 144 q 759 159 745 148 q 773 173 773 169 m 262 565 l 262 659 q 220 691 231 683 l 205 691 l 162 659 l 162 565 q 176 550 162 561 q 200 534 190 538 l 201 534 l 225 534 l 226 534 l 227 534 q 250 550 237 538 q 262 565 262 561 "},"P":{"x_min":9.71875,"x_max":615.328125,"ha":735,"o":"m 615 505 q 588 418 615 456 q 554 379 580 404 q 512 343 527 354 q 411 312 469 312 l 175 312 l 175 -4 l 9 -4 l 9 819 l 411 819 q 512 787 469 819 q 554 750 527 776 q 588 711 580 725 q 615 620 615 672 l 615 505 m 447 505 l 447 508 l 447 619 l 447 622 q 413 657 429 654 l 408 657 l 175 657 l 175 472 l 409 472 q 427 484 413 472 q 447 505 441 495 "},"∏":{"x_min":0,"x_max":0,"ha":635},"À":{"x_min":-69.453125,"x_max":686.171875,"ha":832,"o":"m 686 -4 l 508 -4 l 454 154 l 163 154 l 106 -4 l -69 -4 l 216 823 l 400 823 l 686 -4 m 402 315 l 308 584 l 213 315 l 402 315 m 530 918 l 358 869 l 95 1109 l 323 1109 l 530 918 "},"_":{"x_min":-9.71875,"x_max":541.703125,"ha":640,"o":"m 541 -113 l -9 -113 l -9 38 l 541 38 l 541 -113 "},"ñ":{"x_min":9.71875,"x_max":613.9375,"ha":774,"o":"m 613 -4 l 444 -4 l 173 486 l 173 -4 l 9 -4 l 9 818 l 181 818 l 448 323 l 448 818 l 613 818 l 613 -4 m 519 959 l 363 930 q 351 957 355 951 q 340 962 347 963 l 250 945 q 129 965 186 933 q 40 1079 73 997 l 194 1108 q 208 1081 204 1087 q 218 1076 212 1075 l 309 1094 q 430 1074 373 1107 q 519 959 487 1041 "},"+":{"x_min":19.453125,"x_max":559.765625,"ha":738,"o":"m 559 265 l 368 265 l 368 77 l 209 77 l 209 265 l 19 265 l 19 419 l 209 419 l 209 608 l 368 608 l 368 419 l 559 419 l 559 265 "},"‚":{"x_min":38.890625,"x_max":211.125,"ha":329,"o":"m 211 686 l 198 581 l 38 581 l 52 705 l 52 888 l 211 888 l 211 686 "},"½":{"x_min":0,"x_max":0,"ha":995},"Æ":{"x_min":-69.453125,"x_max":686.171875,"ha":842,"o":"m 686 -2 l 281 -4 l 281 -2 l 270 -2 l 270 163 l 166 163 l 108 -4 l -69 -4 l 216 820 l 398 820 l 686 819 l 686 657 l 437 657 l 437 487 l 686 487 l 686 326 l 437 326 l 437 158 l 686 158 l 686 -2 m 269 326 l 269 470 l 219 326 l 269 326 "},"Ë":{"x_min":9.71875,"x_max":551.4375,"ha":707,"o":"m 551 -4 l 9 -4 l 9 819 l 551 819 l 551 657 l 175 657 l 175 487 l 538 488 l 538 327 l 175 326 l 175 156 l 551 156 l 551 -4 m 502 941 l 344 941 l 344 1107 l 502 1107 l 502 941 m 236 941 l 80 941 l 80 1107 l 236 1107 l 236 941 "},"'":{"x_min":38.890625,"x_max":211.125,"ha":342,"o":"m 211 686 l 198 581 l 38 581 l 52 705 l 52 888 l 211 888 l 211 686 "},"Š":{"x_min":0,"x_max":0,"ha":710},"ª":{"x_min":0,"x_max":0,"ha":533},"Œ":{"x_min":11.109375,"x_max":725.0625,"ha":875,"o":"m 725 -4 l 216 -4 q 136 22 140 19 q 79 68 113 36 q 33 119 45 100 q 11 204 11 154 l 11 616 q 33 693 11 661 q 80 746 47 712 q 136 793 113 780 q 216 819 140 795 l 725 819 l 725 657 l 488 657 l 488 487 l 725 487 l 725 326 l 488 326 l 488 156 l 725 156 l 725 -4 m 312 156 l 312 655 l 230 655 l 222 655 q 176 613 176 633 l 176 205 q 192 184 176 201 q 220 158 208 166 q 227 158 223 158 l 230 156 l 312 156 "},"˛":{"x_min":101.390625,"x_max":387.53125,"ha":515,"o":"m 387 -227 l 204 -227 l 101 -37 l 258 9 l 387 -227 "},"ð":{"x_min":0,"x_max":0,"ha":710},"T":{"x_min":-30.5625,"x_max":583.375,"ha":703,"o":"m 583 659 l 358 659 l 358 -4 l 193 -4 l 193 659 l -30 659 l -30 819 l 583 819 l 583 659 "},"š":{"x_min":0,"x_max":0,"ha":647},"j":{"x_min":-55.5625,"x_max":469.484375,"ha":622,"o":"m 469 200 q 444 115 469 151 q 397 61 430 94 q 344 16 365 29 q 255 -9 300 -9 l 156 -9 q -25 106 63 -9 l -31 113 q -55 166 -40 122 l 105 209 q 154 152 122 172 l 159 152 l 250 152 q 276 176 251 152 q 301 201 301 200 l 301 825 l 469 825 l 469 200 "},"1":{"x_min":94.453125,"x_max":393.09375,"ha":710,"o":"m 393 -4 l 227 -4 l 227 657 l 94 657 l 94 820 l 393 820 l 393 -4 "},"›":{"x_min":27.78125,"x_max":411.140625,"ha":564,"o":"m 411 322 l 208 120 l 27 168 l 219 354 l 31 536 l 208 587 l 411 384 l 411 322 "},"ı":{"x_min":9.71875,"x_max":176.40625,"ha":335,"o":"m 176 -4 l 9 -4 l 9 819 l 176 819 l 176 -4 "},"ä":{"x_min":-69.453125,"x_max":686.171875,"ha":783,"o":"m 686 -4 l 508 -4 l 454 154 l 163 154 l 106 -4 l -69 -4 l 216 823 l 400 823 l 686 -4 m 402 315 l 308 584 l 213 315 l 402 315 m 526 943 l 368 943 l 368 1108 l 526 1108 l 526 943 m 259 943 l 104 943 l 104 1108 l 259 1108 l 259 943 "},"<":{"x_min":-55.5625,"x_max":838.953125,"ha":989,"o":"m 838 330 l 247 330 l 598 -4 l 373 -4 l -55 408 l 373 823 l 598 823 l 244 487 l 838 487 l 838 330 "},"£":{"x_min":1.390625,"x_max":657,"ha":818,"o":"m 657 168 q 629 111 654 151 q 447 -2 545 -2 l 54 -2 l 54 233 l 1 233 l 1 386 l 54 386 l 54 418 l 1 418 l 1 575 l 54 575 l 54 611 q 76 694 54 662 q 123 748 90 715 q 177 794 156 782 q 266 820 225 820 l 472 820 l 472 658 l 272 658 q 222 609 243 640 l 222 602 l 220 575 l 505 575 l 505 418 l 220 418 l 220 386 l 505 386 l 505 233 l 220 233 l 220 158 l 443 158 l 444 159 l 445 159 q 498 213 476 181 l 657 168 "},"¹":{"x_min":0,"x_max":0,"ha":439},"t":{"x_min":-30.5625,"x_max":569.484375,"ha":686,"o":"m 569 659 l 351 659 l 351 -4 l 186 -4 l 186 659 l -30 659 l -30 819 l 569 819 l 569 659 "},"¬":{"x_min":0,"x_max":0,"ha":761},"ù":{"x_min":0,"x_max":597.265625,"ha":745,"o":"m 597 200 q 573 115 597 150 q 526 61 559 94 q 472 15 493 27 q 383 -11 427 -11 l 238 -11 l 213 -11 q 125 15 169 -11 q 70 61 104 27 q 23 115 37 94 q 0 200 0 150 l 0 820 l 166 820 l 166 204 l 168 202 q 218 151 197 162 l 220 151 l 377 151 l 379 151 q 430 202 405 165 l 430 204 l 430 820 l 597 820 l 597 200 m 520 922 l 348 873 l 86 1113 l 313 1113 l 520 922 "},"W":{"x_min":-9.71875,"x_max":968.140625,"ha":1057,"o":"m 968 820 l 776 -4 l 595 -4 l 477 484 l 359 -4 l 179 -4 l -9 820 l 161 820 l 270 308 l 391 820 l 562 820 l 683 308 l 791 820 l 968 820 "},"ï":{"x_min":-65.28125,"x_max":356.96875,"ha":374,"o":"m 240 -4 l 72 -4 l 72 819 l 240 819 l 240 -4 m 356 944 l 198 944 l 198 1109 l 356 1109 l 356 944 m 90 944 l -65 944 l -65 1109 l 90 1109 l 90 944 "},">":{"x_min":-29.171875,"x_max":865.34375,"ha":982,"o":"m 865 408 l 434 -4 l 211 -4 l 561 330 l -29 330 l -29 487 l 563 487 l 209 823 l 434 823 l 865 408 "},"v":{"x_min":-62.5,"x_max":641.71875,"ha":739,"o":"m 641 820 l 380 -4 l 197 -4 l -62 820 l 113 820 l 288 216 l 465 820 l 641 820 "},"û":{"x_min":0,"x_max":597.265625,"ha":745,"o":"m 597 200 q 573 115 597 150 q 526 61 559 94 q 472 15 493 27 q 383 -11 427 -11 l 238 -11 l 213 -11 q 125 15 169 -11 q 70 61 104 27 q 23 115 37 94 q 0 200 0 150 l 0 820 l 166 820 l 166 204 l 168 202 q 218 151 197 162 l 220 151 l 377 151 l 379 151 q 430 202 405 165 l 430 204 l 430 820 l 597 820 l 597 200 m 570 927 l 494 895 l 377 895 l 300 965 l 297 965 l 219 895 l 101 895 l 25 927 l 234 1109 l 359 1109 l 570 927 "},"Ò":{"x_min":11.109375,"x_max":655.609375,"ha":797,"o":"m 655 200 q 632 115 655 150 q 584 61 618 94 q 530 15 551 27 q 441 -11 486 -11 l 248 -11 l 225 -11 q 136 15 180 -11 q 81 61 115 27 q 34 115 48 94 q 11 200 11 150 l 11 443 l 11 611 q 34 695 11 661 q 81 750 48 716 q 136 795 115 783 q 225 822 180 822 l 418 822 l 441 822 q 530 795 486 822 q 584 750 551 783 q 632 695 618 716 q 655 611 655 661 l 655 368 l 655 200 m 488 202 l 488 204 l 488 441 l 488 607 l 488 608 q 438 659 459 648 l 434 659 l 230 659 l 229 659 q 177 608 202 645 l 177 607 l 177 369 l 177 204 l 177 202 q 227 151 206 162 l 231 151 l 436 151 l 437 151 q 488 202 463 165 m 551 919 l 379 870 l 116 1111 l 344 1111 l 551 919 "},"&":{"x_min":-20.828125,"x_max":605.609375,"ha":792,"o":"m 605 247 l 568 247 l 568 191 q 541 102 568 138 q 507 63 533 88 q 466 27 481 38 q 362 -4 423 -4 l 183 -4 q 80 27 123 -4 q 40 63 65 38 q 6 102 16 88 q -20 191 -20 141 l -20 295 q 27 411 -20 359 q -20 526 -20 462 l -20 625 q 6 716 -20 676 q 80 788 30 752 q 183 825 131 825 l 277 825 q 356 802 318 825 q 413 760 394 780 q 456 707 431 740 q 472 679 463 698 q 487 650 481 661 l 329 607 q 314 631 322 620 q 301 645 306 641 q 286 655 295 650 q 273 662 276 661 l 272 662 l 184 662 q 176 656 183 662 q 160 641 169 651 q 147 623 151 632 l 147 622 l 147 533 l 147 530 l 147 529 q 184 490 172 490 l 366 490 l 366 330 l 184 330 q 176 325 183 330 q 160 310 169 319 q 147 293 151 301 l 147 290 l 147 194 l 147 188 q 161 173 152 181 q 176 161 169 165 q 184 156 183 156 l 362 156 q 380 169 366 156 q 401 194 394 181 l 402 194 l 402 412 l 605 412 l 605 247 "},"˝":{"x_min":-29.171875,"x_max":702.828125,"ha":646,"o":"m 702 1150 l 441 909 l 268 958 l 476 1150 l 702 1150 m 405 1150 l 144 909 l -29 958 l 179 1150 l 405 1150 "},"Ð":{"x_min":0,"x_max":0,"ha":710},"I":{"x_min":9.71875,"x_max":176.40625,"ha":338,"o":"m 176 -4 l 9 -4 l 9 819 l 176 819 l 176 -4 "},"G":{"x_min":9.71875,"x_max":675.046875,"ha":815,"o":"m 675 -1 l 509 -1 l 504 23 q 431 -4 448 -4 l 223 -4 q 134 22 179 -4 q 79 67 112 36 q 33 119 45 98 q 9 204 9 155 l 9 618 q 33 702 9 668 q 80 757 47 723 q 134 802 113 790 q 223 827 177 827 l 431 827 q 613 711 525 827 q 668 609 632 690 l 508 563 q 450 650 473 627 q 426 666 438 658 l 229 666 q 176 615 195 645 l 176 613 l 176 205 q 227 158 176 188 l 230 158 l 426 156 q 480 205 480 188 l 480 322 l 294 322 l 294 484 l 647 484 l 648 173 q 675 -1 648 165 "},"`":{"x_min":29.171875,"x_max":463.921875,"ha":563,"o":"m 463 918 l 291 869 l 29 1109 l 256 1109 l 463 918 "},"·":{"x_min":72.234375,"x_max":263.90625,"ha":415,"o":"m 263 263 l 72 263 l 72 426 l 263 426 l 263 263 "},"r":{"x_min":9.71875,"x_max":654.21875,"ha":754,"o":"m 654 -4 l 462 -4 l 265 305 l 176 305 l 176 -4 l 9 -4 l 9 819 l 397 819 q 500 787 456 819 q 575 711 547 752 q 601 620 601 672 l 601 498 q 575 411 601 450 q 540 370 565 395 q 500 336 515 345 q 448 312 490 330 l 654 -4 m 433 498 l 433 501 l 433 619 l 433 622 q 398 657 415 654 l 394 657 l 175 657 l 175 465 l 395 465 q 413 476 400 465 q 433 498 427 487 "},"¿":{"x_min":20.828125,"x_max":600.046875,"ha":647,"o":"m 391 819 l 388 651 l 222 651 l 222 819 l 391 819 m 600 165 q 566 105 569 108 q 386 -9 479 -9 l 229 -9 q 127 23 172 -9 q 48 100 72 63 q 20 190 20 140 l 20 273 q 51 366 20 325 q 126 430 81 406 q 157 443 129 431 q 206 467 186 455 q 226 487 226 479 l 226 587 l 388 587 l 388 481 q 357 387 388 427 q 288 329 326 347 q 220 295 251 311 q 188 269 188 279 l 188 200 l 191 187 q 212 163 200 175 q 229 152 225 152 l 380 152 l 381 152 q 384 154 383 154 q 387 155 386 154 q 438 208 422 172 l 600 165 "},"ý":{"x_min":0,"x_max":0,"ha":531},"x":{"x_min":-41.671875,"x_max":620.890625,"ha":718,"o":"m 620 820 l 384 406 l 619 -4 l 433 -4 l 290 245 l 145 -4 l -40 -4 l 197 406 l -41 820 l 145 820 l 290 568 l 433 820 l 620 820 "},"è":{"x_min":9.71875,"x_max":537.546875,"ha":693,"o":"m 537 -4 l 9 -4 l 9 819 l 537 819 l 537 657 l 175 657 l 175 487 l 525 488 l 525 327 l 175 326 l 175 156 l 537 156 l 537 -4 m 463 919 l 291 870 l 29 1111 l 256 1111 l 463 919 "},"º":{"x_min":0,"x_max":0,"ha":560},"Ø":{"x_min":-33.34375,"x_max":640.328125,"ha":789,"o":"m 640 845 l 576 730 q 627 611 627 676 l 627 198 q 602 112 627 148 q 556 59 588 91 q 502 13 523 26 q 413 -12 458 -12 l 198 -12 q 170 -9 187 -12 l 152 -41 l -33 -41 l 34 81 q -15 198 -15 137 l -15 611 q 9 695 -15 659 q 57 750 25 716 q 111 797 90 784 q 198 823 158 823 l 413 823 q 440 819 415 823 l 455 845 l 640 845 m 352 659 l 204 659 q 181 641 194 654 q 161 619 169 629 q 152 608 152 609 l 152 294 l 352 659 m 459 200 l 459 515 l 258 150 l 402 150 q 459 200 459 187 "},"∞":{"x_min":0,"x_max":0,"ha":1014},"μ":{"x_min":0,"x_max":0,"ha":588},"÷":{"x_min":0,"x_max":0,"ha":549},"h":{"x_min":9.71875,"x_max":607,"ha":765,"o":"m 607 -4 l 440 -4 l 440 326 l 176 326 l 176 -4 l 9 -4 l 9 820 l 176 820 l 176 487 l 440 487 l 440 820 l 607 820 l 607 -4 "},".":{"x_min":72.234375,"x_max":263.90625,"ha":428,"o":"m 263 -4 l 72 -4 l 72 188 l 263 188 l 263 -4 "},";":{"x_min":-22.21875,"x_max":266.6875,"ha":438,"o":"m 243 334 l 50 334 l 50 536 l 243 536 l 243 334 m 266 138 l 158 -113 l -22 -113 l 109 190 l 266 138 "},"f":{"x_min":9.71875,"x_max":537.546875,"ha":665,"o":"m 537 657 l 175 657 l 175 487 l 518 487 l 518 326 l 175 326 l 175 -4 l 9 -4 l 9 819 l 537 819 l 537 657 "},"“":{"x_min":33.34375,"x_max":475.03125,"ha":535,"o":"m 475 880 l 461 757 l 461 573 l 302 573 l 302 776 l 315 880 l 475 880 m 206 880 l 193 757 l 193 573 l 33 573 l 33 776 l 45 880 l 206 880 "},"A":{"x_min":-69.453125,"x_max":686.171875,"ha":783,"o":"m 686 -4 l 508 -4 l 454 154 l 163 154 l 106 -4 l -69 -4 l 216 823 l 400 823 l 686 -4 m 402 315 l 308 584 l 213 315 l 402 315 "},"6":{"x_min":-2.78125,"x_max":576.4375,"ha":710,"o":"m 576 186 q 550 95 576 134 q 515 56 541 81 q 473 19 488 30 q 373 -12 430 -12 l 358 -12 l 215 -12 l 201 -12 q 100 19 143 -12 q 58 56 84 30 q 23 95 31 81 q -2 184 -2 134 l -2 186 l -2 187 l -2 625 l -2 626 q 23 716 -2 677 q 58 755 31 730 q 100 791 84 780 q 201 825 144 825 l 358 825 q 538 709 451 825 q 572 650 541 707 l 411 607 q 391 637 402 625 q 374 652 379 650 q 356 661 369 654 q 355 661 355 661 l 352 662 l 201 662 q 184 651 197 662 q 163 627 172 640 l 163 622 l 163 509 q 227 537 215 537 l 373 537 q 473 506 430 537 q 515 470 488 495 q 550 431 541 445 q 576 341 576 393 l 576 187 l 576 186 m 409 184 l 409 197 l 409 340 q 388 367 401 354 q 372 380 376 380 l 231 380 q 218 379 220 380 l 213 375 q 202 365 208 370 q 188 352 195 359 q 174 338 180 345 q 163 326 168 331 l 163 202 l 163 187 q 184 161 172 173 q 201 150 197 150 l 219 150 l 355 150 l 373 150 q 389 160 377 150 q 409 184 401 170 "},"‘":{"x_min":33.34375,"x_max":206.96875,"ha":326,"o":"m 206 890 l 193 765 l 193 583 l 33 583 l 33 786 l 45 890 l 206 890 "},"π":{"x_min":11.109375,"x_max":1159.8125,"ha":1313,"o":"m 356 37 l 234 -80 q 186 -34 220 -66 q 134 13 151 -2 q 36 119 55 90 q 11 204 11 155 l 11 616 q 36 701 11 665 q 127 800 58 733 q 234 904 194 863 l 355 788 q 304 741 352 786 q 217 658 255 695 q 179 613 179 620 l 179 206 q 243 136 179 194 q 356 37 306 77 m 1159 204 q 1136 119 1159 155 q 1037 13 1113 84 q 934 -81 944 -73 l 815 37 q 929 136 865 77 q 993 206 993 194 l 993 613 q 955 658 993 620 q 869 741 918 695 q 818 788 820 786 l 934 902 q 984 859 943 895 q 1043 804 1025 822 q 1091 756 1062 786 q 1136 701 1119 726 q 1159 616 1159 666 l 1159 204 m 783 462 q 783 445 783 459 q 783 425 783 430 q 782 409 783 420 q 777 391 780 398 q 768 375 773 383 q 700 313 754 352 q 618 287 662 287 l 554 287 l 554 159 l 405 159 l 405 644 l 607 644 q 700 615 662 644 q 737 583 715 605 q 768 548 759 561 q 783 475 783 525 l 783 462 m 644 458 l 644 468 q 609 500 634 484 q 607 501 608 501 l 554 501 l 554 429 l 607 429 q 624 438 611 429 q 644 458 637 448 "},"O":{"x_min":11.109375,"x_max":655.609375,"ha":808,"o":"m 655 200 q 632 115 655 150 q 584 61 618 94 q 530 15 551 27 q 441 -11 486 -11 l 248 -11 l 225 -11 q 136 15 180 -11 q 81 61 115 27 q 34 115 48 94 q 11 200 11 150 l 11 443 l 11 611 q 34 695 11 661 q 81 750 48 716 q 136 795 115 783 q 225 822 180 822 l 418 822 l 441 822 q 530 795 486 822 q 584 750 551 783 q 632 695 618 716 q 655 611 655 661 l 655 368 l 655 200 m 488 202 l 488 204 l 488 441 l 488 607 l 488 608 q 438 659 459 648 l 434 659 l 230 659 l 229 659 q 177 608 202 645 l 177 607 l 177 369 l 177 204 l 177 202 q 227 151 206 162 l 231 151 l 436 151 l 437 151 q 488 202 463 165 "},"n":{"x_min":9.71875,"x_max":613.9375,"ha":774,"o":"m 613 -4 l 444 -4 l 173 486 l 173 -4 l 9 -4 l 9 818 l 181 818 l 448 323 l 448 818 l 613 818 l 613 -4 "},"3":{"x_min":6.9375,"x_max":583.375,"ha":710,"o":"m 583 186 q 556 95 583 134 q 522 56 548 81 q 480 19 495 30 q 380 -12 437 -12 l 222 -12 q 41 102 129 -12 q 6 163 36 109 l 169 206 q 225 150 186 170 l 379 150 q 395 161 383 150 q 416 186 408 172 l 416 293 l 415 295 q 396 319 408 308 q 380 330 384 330 l 379 330 l 195 330 l 195 490 l 379 490 l 380 490 q 396 501 384 490 q 415 525 408 512 l 416 527 l 416 623 q 395 649 408 637 q 379 661 383 661 l 227 661 l 225 661 q 193 636 211 654 q 169 604 176 619 l 6 647 q 19 671 12 658 q 31 693 26 684 q 41 708 36 701 q 222 823 129 823 l 380 823 q 480 790 436 823 q 522 754 495 779 q 556 715 548 729 q 583 625 583 676 l 583 523 q 534 411 583 462 q 583 295 583 359 l 583 186 "},"9":{"x_min":4.171875,"x_max":583.375,"ha":710,"o":"m 583 186 q 556 95 583 134 q 522 56 548 81 q 480 19 495 30 q 380 -12 437 -12 l 222 -12 q 41 102 129 -12 q 6 163 36 109 l 169 206 q 222 151 186 169 l 223 150 q 226 150 225 150 l 379 150 q 395 161 383 150 q 416 184 408 172 l 416 190 l 416 300 q 352 277 375 277 l 206 277 q 106 308 150 277 q 65 344 91 319 q 30 383 38 369 q 4 472 4 422 l 4 626 l 4 627 q 30 718 4 679 q 65 757 38 732 q 106 793 91 782 q 206 826 151 826 l 222 826 l 365 826 l 380 826 q 480 793 436 826 q 522 757 495 782 q 556 718 548 732 q 583 629 583 679 l 583 627 l 583 626 l 583 187 l 583 186 m 416 488 l 416 609 l 416 626 q 395 652 408 640 q 379 663 383 663 l 361 663 l 226 663 l 208 663 q 192 653 204 663 q 172 629 180 643 l 172 616 l 172 473 q 193 447 180 459 q 209 434 205 434 l 348 434 q 363 436 361 434 l 369 440 q 379 450 373 444 q 393 462 386 455 q 406 476 400 469 q 416 488 412 483 "},"l":{"x_min":9.71875,"x_max":529.203125,"ha":645,"o":"m 529 -4 l 9 -4 l 9 819 l 175 819 l 175 156 l 529 156 l 529 -4 "},"¤":{"x_min":-43.0625,"x_max":605.609375,"ha":742,"o":"m 605 163 q 570 102 576 109 q 390 -12 483 -12 l 231 -12 q 134 13 169 -12 q 79 59 112 26 q 33 112 47 93 q 9 197 9 147 l 9 226 l -43 226 l -43 375 l 9 375 l 9 430 l -43 430 l -43 580 l 9 580 l 9 611 q 33 694 9 659 q 79 744 41 708 q 131 791 116 780 q 233 825 176 825 l 390 825 q 570 709 483 825 q 604 650 573 707 l 443 607 q 422 637 434 625 q 406 652 411 650 q 388 661 401 654 l 387 661 q 384 662 386 662 l 233 662 q 176 607 195 637 l 176 604 l 176 600 l 176 580 l 418 580 l 418 430 l 176 430 l 176 375 l 418 375 l 418 226 l 176 226 l 176 198 q 233 150 176 184 l 386 150 l 387 150 q 390 151 388 151 q 443 206 426 169 l 605 163 "},"∂":{"x_min":0,"x_max":0,"ha":635},"4":{"x_min":-2.78125,"x_max":604.21875,"ha":710,"o":"m 604 155 l 518 155 l 518 -4 l 354 -4 l 354 155 l -2 155 l -2 297 l 338 820 l 518 820 l 518 316 l 604 316 l 604 155 m 354 316 l 354 556 l 198 316 l 354 316 "},"p":{"x_min":9.71875,"x_max":601.4375,"ha":721,"o":"m 601 498 q 575 411 601 450 q 540 372 566 397 q 498 336 513 347 q 397 305 455 305 l 175 305 l 175 -4 l 9 -4 l 9 819 l 397 819 q 498 787 455 819 q 540 750 513 776 q 575 711 566 725 q 601 620 601 672 l 601 498 m 433 498 l 433 501 l 433 619 l 433 622 q 400 657 415 654 l 394 657 l 175 657 l 175 465 l 395 465 q 413 477 400 465 q 433 498 427 488 "},"‡":{"x_min":0,"x_max":0,"ha":494},"à":{"x_min":-69.453125,"x_max":686.171875,"ha":783,"o":"m 686 -4 l 508 -4 l 454 154 l 163 154 l 106 -4 l -69 -4 l 216 823 l 400 823 l 686 -4 m 402 315 l 308 584 l 213 315 l 402 315 m 463 919 l 291 870 l 29 1111 l 256 1111 l 463 919 "},"Ü":{"x_min":-2.78125,"x_max":608.375,"ha":745,"o":"m 608 200 q 584 115 608 150 q 537 61 570 94 q 483 15 504 27 q 394 -11 438 -11 l 236 -11 l 211 -11 q 122 15 166 -11 q 68 61 101 27 q 20 115 34 94 q -2 200 -2 150 l -2 820 l 163 820 l 163 204 l 165 202 q 215 151 194 162 l 218 151 l 388 151 l 390 151 q 441 202 416 165 l 441 204 l 441 820 l 608 820 l 608 200 m 525 945 l 366 945 l 366 1111 l 525 1111 l 525 945 m 258 945 l 102 945 l 102 1111 l 258 1111 l 258 945 "},"ó":{"x_min":11.109375,"x_max":641.71875,"ha":783,"o":"m 641 200 q 618 115 641 150 q 570 61 604 94 q 516 15 537 27 q 427 -11 472 -11 l 248 -11 l 225 -11 q 136 15 180 -11 q 81 61 115 27 q 34 115 48 94 q 11 200 11 150 l 11 443 l 11 611 q 34 695 11 661 q 81 750 48 716 q 136 795 115 783 q 225 822 180 822 l 404 822 l 427 822 q 516 795 472 822 q 570 750 537 783 q 618 695 604 716 q 641 611 641 661 l 641 368 l 641 200 m 475 202 l 475 204 l 475 441 l 475 607 l 475 608 q 425 659 445 648 l 420 659 l 230 659 l 229 659 q 177 608 202 645 l 177 607 l 177 369 l 177 204 l 177 202 q 227 151 206 162 l 231 151 l 422 151 l 423 151 q 475 202 450 165 m 493 1109 l 231 869 l 58 918 l 266 1109 l 493 1109 "},"√":{"x_min":0,"x_max":0,"ha":822}}}
